<svg xmlns="http://www.w3.org/2000/svg" xmlns:xlink="http://www.w3.org/1999/xlink" width="1620" height="428"><g><svg xmlns="http://www.w3.org/2000/svg" xmlns:xlink="http://www.w3.org/1999/xlink" width="1620" height="428"/><svg xmlns="http://www.w3.org/2000/svg" width="1620" height="428" version="1.0" viewBox="0 0 1620 428"><g fill="#fefffe" transform="matrix(.1 0 0 -.1 0 428)"><path d="M0 2140V0h16200v4280H0V2140z"/></g></svg><svg xmlns="http://www.w3.org/2000/svg" width="1620" height="428" version="1.0" viewBox="0 0 1620 428"><g fill="#eaeced" transform="matrix(.1 0 0 -.1 0 428)"><path d="M2066 3841c-10-4 23-6 74-4s96 5 98 8c8 8-151 4-172-4zm532 2c7-3 16-2 19 1 4 3-2 6-13 5-11 0-14-3-6-6zm210 0c7-3 16-2 19 1 4 3-2 6-13 5-11 0-14-3-6-6zm-1366-20-252-3V2229l305 2c213 1 303 4 298 12-4 6 0 8 10 4 13-5 17 0 18 21 1 27 1 27 8 2 4-14 4-30-1-36-4-6-6-19-2-28 6-15-23-16-315-16h-321v-354c0-342 8-506 31-611 29-134 157-327 281-426 86-67 247-142 368-170 223-52 587-52 810 0 105 24 266 92 327 137 17 13 34 24 37 24s22 18 42 40 41 37 47 33c6-3 7-1 3 6-4 6-1 14 8 17 8 3 26 23 41 45 14 22 30 37 36 34 5-4 8-3 7 2-2 4 19 51 45 103s54 127 62 165c18 80 37 562 33 800l-3 150-316 3-317 2-7-157c-4-87-5-216-2-288 7-193-30-302-139-405-85-81-158-108-311-117-165-10-318 82-395 238-28 57-46 109-33 97 5-4 14 0 22 10 13 16 14 15 10-5-3-14-1-20 7-17 14 5 39-63 29-80-3-6-2-8 2-3 11 9 55-32 55-51 0-8 6-12 15-8 8 3 14 1 12-5-1-6 9-18 23-27 13-9 21-11 17-5-5 7 14-1 41-18 27-16 73-37 103-45 57-15 232-18 223-3-3 5 2 9 11 9 49 0 184 111 220 181 20 38 20 38-85-7-85-36-213-45-288-20-52 18-146 91-136 107 3 5 1 9-5 9-15 0-54 80-56 116-1 17-5 36-9 42-14 23 11 159 39 206 45 76 119 119 209 118 110 0 183-47 206-133 19-71-14-155-73-186-24-12-29-13-21-2 20 25 26 115 11 151-22 51-51 71-111 76-67 5-117-23-146-85-25-53-27-145-3-199 9-22 16-43 14-49-1-5 0-7 4-4 3 4 21-6 38-22 59-54 161-72 253-44 27 8 51 13 54 12s19 10 35 26c17 15 36 25 45 22 8-4 12-3 8 0-3 3 9 31 27 61 59 97 69 242 24 343-10 24-16 48-12 55 3 6 3 8-2 4-8-7-32 18-34 35-1 14-85 77-136 102-98 47-283 52-366 10-34-18-35-14-13 62 12 40 15 84 12 157-3 93-7 107-41 174-21 40-34 78-31 84 4 6 3 8-3 5-6-4-22 10-36 31-14 20-44 56-66 79-22 24-39 48-37 55 1 7 1 9-2 5-2-4-10-3-17 3s-20 7-30 4c-15-6-15-8 5-19 16-9 19-14 10-20-7-4-16-2-21 6-7 11-9 9-11-6-1-11-4 7-7 40-7 70-5 80 15 64 12-10 13-9 7 7-6 17-5 17 10 5 9-7 14-18 10-24-3-5-2-7 4-4 15 10 53-22 46-38-4-11-1-13 13-8s16 3 11-12c-6-14-5-16 6-6 11 9 17 8 27-4 7-8 9-15 5-15s-2-7 5-15c15-18 34-20 25-2-4 6 7-3 24-21 17-17 33-32 36-32 14 2 94-74 88-83-3-6-1-7 5-3 12 7 292-218 292-235 0-6 4-8 9-4 5 3 18-6 29-20s23-25 27-25c14 0 84-63 79-72-3-5 0-7 7-6 7 2 13-4 14-12s7-14 14-12c16 3 53-27 46-39-3-4 0-11 6-15 8-4 9-3 5 4-12 20 2 13 28-13 25-25 25-25 303-23 164 0 289 5 304 11 26 11 26 11 32 441 7 485 3 1118-7 1134-9 15-648 3-659-12-7-10-5-39 8-96 5-22 4-22-4-5-9 18-10 17-12-10-1-16-5 3-9 42-3 40-9 76-13 80s-189 7-410 7c-302 1-400-2-393-10 6-7 14-10 17-8 9 5 33-25 26-33-4-3-15 0-24 8-16 13-17 12-4-4 9-11 21-15 34-11 15 5 19 3 14-9-4-12-1-15 14-12 16 3 19 0 14-13-5-14-4-15 6-4 17 16 29 15 29-1 0-8 12-19 27-26 27-12 27-12 10 6-14 16-6 14 40-8 107-52 240-61 359-24 21 7 22 4 22-89 1-100 13-148 57-237 14-27 23-55 19-61s-3-8 4-4c14 8 56-50 49-69-6-13 19-30 37-26 5 1 19-8 32-20 24-22 24-22 24 67 0 117 11 205 21 179 5-15 8-7 9 25 2 45 2 45 10 10 5-19 10-111 10-204 1-93 6-181 11-194 5-14 8-26 6-28-7-7-532 458-529 468 1 5-2 7-7 4-12-8-33 18-23 29 4 5 2 5-4 2-14-8-49 17-49 35-1 7-6 12-12 11s-35 20-65 48c-29 27-69 62-88 77-19 14-57 47-85 73-47 44-54 47-115 51-36 2-179 3-318 1zm1162-619c3-8 2-12-4-9s-10 10-10 16c0 14 7 11 14-7zm-727-516c-3-8-6-5-6 6-1 11 2 17 5 13 3-3 4-12 1-19zm-17-428c0-57-11-78-24-44-3 8-2 12 4 9 6-4 10 14 10 44 0 28 2 51 5 51s5-27 5-60zm17-92c-2-18-4-4-4 32s2 50 4 33c2-18 2-48 0-65zm-20-450c-2-18-4-6-4 27s2 48 4 33 2-42 0-60zm25-110c-2-10-9-18-14-18-6 0-7 8-3 18 4 9 7 58 7 107l1 90 6-90c4-49 5-98 3-107zm-55 15c-3-10-5-4-5 12 0 17 2 24 5 18 2-7 2-21 0-30zm10-45c-3-8-6-5-6 6-1 11 2 17 5 13 3-3 4-12 1-19zm9734 1907c-29-25-57-45-63-45s-7-15-3-40c5-32 3-41-9-46-9-4-16-11-15-18 3-24-1-37-11-31-6 3-7-1-4-10 4-8-1-26-10-40-9-13-16-29-16-36 0-10-138-385-159-434-5-11-19-47-31-80-55-152-102-215-160-215-43 0-56-14-42-45 12-26 12-26 186-23 96 2 177 5 179 8 3 3 7 14 9 25 3 19-11 27-74 40-16 3-28 12-28 20s-5 14-12 12c-22-4-11 80 23 175 18 51 38 96 43 100 6 5 88 7 181 5 130-1 169-5 168-15-2-6 2-11 7-10 10 3 22-24 77-176 25-69 25-69 4-89-13-13-39-23-68-27-41-4-48-8-51-29-2-13 2-28 10-32 16-11 419-10 437 0 7 5 11 19 9 32-2 19-11 25-42 30-59 10-86 48-151 215-32 82-78 198-101 258-24 60-41 113-38 117 3 5 1 9-4 9s-24 39-42 88c-19 48-51 132-73 187-21 55-40 105-41 110-1 6-8 20-17 32-16 23-16 23-68-22zm-12-222c2-43 6-61 12-58 3 2 29-58 58-133s59-152 67-170l14-33-155 2c-155 2-155 2-148 28 10 41 124 345 134 357 5 6 6 14 2 17-3 4-1 7 5 7s11-8 11-17zm-5460 229c-14-15-39-37-55-48-25-19-27-25-17-41 7-13 8-25 2-34-5-8-14-31-19-52-7-23-15-35-22-31-6 4-8 3-5-3 4-6-3-34-14-64-17-45-48-130-101-271-5-16-14-25-19-22s-6-1-3-9c6-15-103-303-135-359-23-38-45-53-63-41-6 3-8 1-4-5 8-14-4-21-43-24-17-1-32-7-32-13-3-21 3-40 14-47 7-4 88-8 180-8 140 0 169 2 173 15 4 8 9 13 13 10 4-2 8 2 8 10 0 17-16 25-77 40-25 6-44 16-43 23 2 7-3 11-10 9-7-1-13 11-15 32-2 18 0 31 5 28 4-3 9 8 10 24s17 66 35 112l33 82 177 3 178 2 19-42c32-69 60-146 71-191 8-36 6-45-12-64-14-16-33-23-57-23-57-1-85-37-47-62 15-10 434-10 439 0 2 4 7 19 10 33 6 25 4 27-42 33-51 7-89 35-75 57 4 7 3 10-3 6-13-8-36 47-213 505-197 508-186 489-241 430zm37-373c29-74 59-153 67-175 8-21 18-47 22-57 7-17-3-18-149-16-87 0-156 5-156 10s5 9 11 9c5 0 8 4 4 9-3 6 22 83 55 173 80 214 84 224 89 201 2-10 27-79 57-154zm2147 364c-22-21-48-43-59-49-16-10-17-15-6-33 10-18 9-27-6-59-11-20-38-89-62-152-78-212-85-230-92-230-4 0-5-7-2-15 4-8 1-15-5-15s-11-8-11-18c0-9-18-64-40-122-23-58-48-125-57-150-21-62-46-101-82-128-32-24-46-28-36-12 4 6-9 2-27-8-41-23-49-57-16-66 13-3 94-6 180-6 157 0 157 0 173 30 15 29 15 29-22 35-21 4-45 9-53 12-8 4-18 6-22 5s-5 5-2 13c4 8 2 15-4 15-5 0-12 9-15 20s0 20 6 20c9 0 9 2 0 8s-9 18-1 50c6 23 13 42 17 42s7 9 8 21c4 42 36 110 50 105 8-3 12-2 9 3-3 4 72 9 167 10l172 2 44-109c68-169 64-201-28-212-43-5-46-7-46-35v-30l213-2c117-1 220 1 228 4s14 15 14 28c0 22-17 35-47 35-8 0-23 10-34 23-12 14-18 17-19 8 0-8-9-3-21 13-11 14-17 31-13 37 4 7 3 9-3 6-8-5-70 138-77 177-1 6-7 20-13 31s-70 173-143 360-137 348-142 358c-13 26-31 21-75-20zm-3-221c0-14 71-211 100-277 21-48 40-98 40-107 0-12-298-9-306 3-3 5 0 9 6 9s9 4 5 10c-3 5-1 17 4 27 6 10 38 95 72 190 55 153 79 197 79 145zm3965 241c-88-2-165-5-172-8-7-2-9-13-4-31 5-20 17-30 51-41 25-8 56-27 68-41 13-15 69-103 124-197 56-93 109-184 119-201s15-35 11-39c-4-5-2-5 4-2s20-11 32-32c20-35 22-53 22-201s-2-164-21-191c-18-26-26-29-75-29-30 0-54-3-55-7 0-5-2-17-4-28s1-23 8-27c15-9 446-9 467 0 18 9 23 44 7 54-7 4-30 8-52 8-40 0-65 10-68 26-1 5-5 8-9 7-10-4-20 35-13 47 3 5 2 10-4 10s-8 55-5 148c2 81 4 153 4 160 0 6 5 12 11 12 5 0 7-6 3-12-4-8-3-10 2-5 9 9 10 13 13 41 0 8 8 22 17 30 8 9 13 16 10 16-4 0 17 37 45 83 29 45 74 118 101 162 28 44 54 82 59 83 5 2 9 10 9 18s7 17 15 20c8 4 13 9 10 14-9 15 53 61 106 78 46 15 54 21 54 42 0 25 0 25-185 25s-185 0-188-27c-3-22 2-28 35-39 21-7 42-13 47-14 16 0 29-32 23-56-10-40-224-392-231-380-4 6-4 11-1 11 4 0-1 7-9 16-9 8-13 20-10 26 4 6 3 8-3 5-9-6-73 94-73 115 0 5-7 16-15 25-8 8-12 19-9 25 4 7 2 8-4 4-11-6-14 0-11 20 0 4-4 10-11 14-10 6-17 24-19 53-1 5-5 5-11 2-5-3-10 1-10 9 0 9-9 25-20 36-36 36-20 74 37 83 10 1 28 9 39 17 17 12 19 20 13 38-5 12-16 22-26 22s-34 2-53 3c-19 2-107 2-195 0zm-7821-9c-6-3-9-16-6-30 5-25 30-41 81-50 13-3 30-11 38-19s19-15 24-15c6 0 8-4 5-9-4-5 0-11 6-13 10-4 14-87 16-364 2-197 0-378-3-401-7-45-49-97-72-89-8 3-12 2-9-3 3-4-9-8-26-9-38-1-51-13-46-43 3-24 3-24 201-27 197-2 197-2 208 24 12 32 3 40-56 50-44 7-100 56-91 80 3 8 1 14-5 14s-9 120-9 336c1 186 5 333 9 328 32-37 50-68 44-77-3-5-2-7 4-4 5 3 25-13 45-36 102-123 128-159 122-169-4-6-3-8 3-5 13 8 65-57 55-68-4-5-2-5 5-2 6 4 25-13 46-40 18-27 52-70 75-97s39-53 36-58-1-7 4-6c13 4 92-98 84-108-4-4-2-4 5 0 10 6 37-26 38-46 0-3 4-10 9-15s6-2 2 7c-4 8-1 6 8-4 8-10 13-23 10-28s-1-7 5-6c5 2 21-12 35-31 25-34 74-66 85-55 3 3 9 211 13 462s8 463 9 470c1 6 6 12 11 12s7 4 4 8c-3 5 6 21 20 38 14 16 22 22 18 14-7-12-5-13 8-2 8 6 33 18 54 25 30 11 38 19 38 38 0 24 0 24-199 27-110 1-204 1-211-2-6-2-9-17-6-35 4-28 9-32 45-38 53-8 82-40 84-92 1-25 10-49 22-63 19-20 21-35 22-152 0-72 2-192 5-266l4-135-30 35c-44 51-120 149-120 156 0 3-16 22-36 42-19 20-40 49-46 65-5 15-15 27-22 27-6 0-20 14-29 30-10 17-23 30-28 30-6 0-7 5-4 10 3 6 1 10-4 10-6 0-10 6-9 13 2 6-3 11-10 9-8-1-11 1-9 6 3 4-4 19-15 32-11 14-16 19-12 11 5-9 3-12-5-7-6 4-9 12-6 17 4 5-7 21-22 35-15 15-27 31-25 36 1 5-2 7-7 4s-15 2-22 11c-12 14-12 16 1 9 8-4 0 6-18 23s-30 31-27 31-4 11-17 25c-39 42-47 53-41 59 4 3 1 6-6 6-15 0-41 25-41 38 0 6-7 13-16 16-18 7-283 7-300 0zm2439-14c-3-11-9-20-13-20s-11-7-14-16c-4-10-2-13 6-8s9 2 5-9c-3-9-18-56-33-104-14-49-30-92-35-98-15-15-10-33 11-40 11-4 17-11 14-17-4-5 4-4 17 3s27 13 31 14c3 0 10 4 15 9s2 6-6 1c-9-5-12-3-9 6 3 8 11 13 17 11 7-1 9 2 6 8-15 24 88 151 149 183 37 19 57 21 208 22 91 0 170-3 174-7 4-5 0-16-8-25-17-19-224-329-403-603-59-91-112-169-119-175-27-24-102-172-92-182 4-5 190-9 413-10 222-2 409-5 414-9 5-3 8-2 7 3-3 13 13 53 21 53 5 0 6 12 3 26-4 20-2 25 8 19 9-5 11-4 6 4-4 6 5 55 20 107 24 87 25 97 11 111-20 20-45 10-57-23-6-14-30-53-54-87-87-121-134-138-380-137-176 2-177 2-170 23 8 25 131 217 149 232 7 6 12 12 12 15 0 6 57 95 228 355 252 382 245 370 212 379-12 3-188 6-390 6-361 0-369 0-374-20zm2102 12c-5-4-10-18-10-32 0-23 6-26 59-37 32-6 63-16 70-23 8-8 13-139 18-433 9-491 13-468-83-477-47-4-54-8-57-29-2-13 1-28 6-33s104-9 233-9c199 1 225 3 237 18 24 33 10 48-53 54-93 10-93 12-95 244l-1 195 43-6c63-9 82-25 147-122 32-48 88-131 125-184 36-54 64-98 61-98s4-10 14-22c11-13 28-34 39-48 19-24 26-25 159-30 90-3 140-1 141 5 0 6 4 20 7 32 8 23 5 25-75 37-19 4-48 18-65 32-16 14-23 23-15 19s3 3-12 14c-28 22-77 98-56 85 7-4-4 9-24 30-35 34-52 66-27 50 6-3 3 5-6 20-20 30-27 34-18 9 8-24-23 16-77 97-23 36-52 75-63 88-20 21-20 22-1 22 10 0 38 9 62 20 23 10 45 20 49 22 16 6 83 78 83 88 0 5 4 10 8 10s8 8 9 18c1 9 6 53 11 97 6 47 6 81 1 83s-9 11-9 19c0 9-11 31-25 48-13 18-21 36-17 40 4 5 1 5-5 1-7-4-13-3-13 3 0 16-120 70-179 81-61 11-581 14-596 2zm571-88c111-53 137-251 45-343-45-45-92-61-203-68l-88-6v206c0 113 2 212 5 219 9 22 191 16 241-8zm582 90c-14-14-8-53 10-62 9-5 38-13 64-16 38-6 49-12 53-29 16-75 21-837 5-866-11-22-31-29-95-33-35-3-40-6-43-30-3-22 2-29 21-33 14-4 153-5 308-3 225 3 292 7 324 20 22 8 46 13 54 10 8-2 11 0 7 6-3 5 1 13 10 16s12 2 8-5c-16-26 35 18 71 62 60 73 60 73 63 94 7 53 20 108 21 91 0-11 3-17 7-14 11 12-35 160-61 194s-109 93-131 94c-12 0-15 30-2 30 4 0 18 11 30 25 11 13 26 22 31 18 6-3 7-1 4 4-4 6 1 17 10 24 28 23 51 91 53 154 3 87 1 107-10 100-5-3-10 1-10 9s-17 32-37 53-36 41-35 45-6 4-15 1c-12-5-14-3-8 7 5 8 4 11-2 7s-30 1-54 10c-37 14-94 17-344 21-165 2-303 0-307-4zm550-93c7-9 11-10 7-4-4 9-1 11 10 7 9-4 14-13 11-20-3-9 0-11 11-7s14 2 9-5c-4-7-2-12 4-12 36 0 53-150 25-218-35-83-84-111-206-119l-89-6v196c0 196 0 197 23 202 73 16 176 9 195-14zm23-470c88-34 109-75 111-216 1-150-69-224-210-225-68 0-97 10-124 44-15 18-18 46-18 219v197h95c69 0 108-5 146-19zm2528 567c-13-39 9-82 37-71 7 2 14 0 17-4 3-5 20-8 37-7s29 0 26-3c-3-4 2-12 12-19 16-11 17-48 20-434 3-423 3-423-19-446-16-17-35-24-73-26-50-3-51-4-54-36l-3-33 440 1 441 2 9 36c10 40 36 181 46 247 5 39 4 41-22 40-24 0-33-10-65-70-43-80-112-149-166-166-20-6-95-14-165-16-122-5-129-4-144 16-8 12-18 19-23 16-17-10-21 39-18 230l3 190 55 3c82 5 155-7 178-28 11-10 25-43 32-72 16-68 27-83 48-66 13 11 14 11 7-2-8-13-6-13 8-1 9 7 14 17 11 22s-2 9 3 9c6 0 1 367-5 378-1 1-15 2-31 2-28 0-30-2-37-56-5-41-14-65-33-85-28-30-37-32-164-30l-78 1 1 175c1 96 5 186 8 199 7 25 7 25 152 22 153-2 173-5 192-24 7-7 17-12 23-12 17 0 46-35 38-45-5-4-3-5 4-1 8 4 23-12 42-46 39-70 47-77 71-71 14 4 20 13 20 32-1 42-27 229-35 240-4 8-137 11-426 11-230 0-419-1-420-2zm993-30c3-28 8-33 44-43 49-12 77-33 70-52-3-8-2-12 3-9 10 7 40-58 115-249 87-224 105-273 99-279-4-3-2-6 4-6 5 0 27-44 47-97 103-266 128-321 147-326 10-3 19 0 19 6s3 7 6 4c4-4 45 94 91 216 101 267 95 249 176 467 83 224 105 273 117 265 5-3 7 0 5 8-6 14 26 49 41 46 5-1 23 4 40 10 33 13 53 58 30 67-6 2-90 3-185 2-148-3-174-5-176-19-5-32 37-63 93-68 7 0 11-5 8-10s1-11 9-15c23-8 18-55-16-153-24-69-170-483-195-553-3-8-39 72-80 179-40 106-72 197-69 201 3 5 1 10-4 12-10 3-95 216-105 264-9 42 9 88 31 79 10-3 14-3 10 2-4 4 11 12 35 18 36 8 43 14 43 35 0 25 0 25-228 28l-228 2 3-32zM2530 3260c-9-6-10-10-3-10 6 0 15 5 18 10 8 12 4 12-15 0zm-640-334c0-2 7-7 16-10 8-3 12-2 9 4-6 10-25 14-25 6zm130-100c0-2 8-10 18-17 15-13 16-12 3 4s-21 21-21 13zm50-50c0-2 7-7 16-10 8-3 12-2 9 4-6 10-25 14-25 6zm61-352c0-11 3-14 6-6 3 7 2 16-1 19-3 4-6-2-5-13zm8946-433c-32-11-69-27-83-35-13-9-29-14-35-11-5 4-8 1-7-6 2-7-3-13-9-14-7 0-12-3-10-6 1-4-5-15-14-25-9-11-22-35-29-54s-17-40-22-46c-21-28-20-102 2-160 12-33 22-64 23-71 0-7 16-29 35-50 18-21 30-31 26-23-7 13-5 13 9 1 9-7 14-18 10-24s-1-7 6-2c7 4 22-1 34-13 12-11 73-42 136-70 62-27 122-57 132-66 11-9 19-12 19-8 1 4 8-4 16-18 11-17 13-19 9-5-5 17-3 17 19-4 15-14 26-30 26-36 0-7 9-20 20-30 29-26 27-116-3-169-33-60-71-77-169-78-116-1-155 16-220 103-10 13-18 27-18 32 0 10-25 69-45 107-16 30-60 49-76 33-11-11-14-299-3-326 5-14 52-15 62-1 23 31 39 34 83 16 24-11 79-27 121-37 68-16 87-17 150-6 96 15 88 13 131 39 21 12 41 22 44 22s14 11 25 25 25 22 31 18c7-3 9-3 5 1-4 5 3 25 16 45 43 69 57 224 26 281-8 14-13 31-11 39 1 7-2 10-8 6-7-3-8 0-5 9 4 9 1 16-6 16s-25 13-41 29c-35 37-120 92-177 114-148 59-281 144-266 169 4 6 2 8-3 5-15-9-23 16-23 69 0 73 44 137 95 137 14 0 25 2 25 6 0 14 118 11 161-4 73-26 136-100 153-181 7-32 46-78 46-55 0 7 4 10 9 7 4-3 16 3 26 14 16 18 17 33 12 133-9 166-22 188-82 137-22-20-26-19-110 11-83 30-194 34-268 10zm1224-30c-68-244-67-237-42-250 32-18 38-14 74 52 65 115 117 147 251 153 154 8 137 63 136-446-1-437-2-439-24-464-17-21-31-26-66-26-54 0-65-7-65-40 0-25 0-25 238-28 164-2 237 1 237 8 0 6 4 9 9 6 4-3 6 5 4 18-5 24-34 36-86 36-11 0-26 8-34 18-8 9-11 11-7 3 4-9 3-12-4-7-6 4-8 14-5 23 5 12 3 14-7 8s-12-2-8 19c3 14 1 26-3 26-5 0-9 8-9 18 0 14 2 15 10 2 6-10 10 129 10 402v417l36 7c34 6 162-2 190-13 8-3 11-10 7-16-3-6-1-7 6-3 14 9 73-32 65-45-3-5 0-8 7-7 7 2 29-24 49-56 38-62 76-88 87-60 3 9-2 53-12 99-9 46-14 89-10 96 6 8 4 10-5 4-10-6-12 0-8 23 2 17 1 29-4 26-7-5-13 19-9 40 1 4-13 5-31 2-18-4-49-10-68-13-48-9-747-15-789-8-21 4-30 10-23 14s-10 8-36 8c-48 1-48 1-61-46zm-7691 19c-195-5-195-5-192-30 5-31 0-27 42-34 84-16 80-8 81-169 2-394 23-608 67-674 8-13 11-23 6-23-4 0 10-16 32-36 21-20 38-41 37-45-2-5 0-8 5-7 4 1 36-12 72-29 97-47 147-57 263-50 107 6 178 25 233 62 45 30 56 43 84 97 13 26 27 45 30 43s6 7 7 18c0 12 9 47 18 77 14 45 19 114 24 366 5 286 8 314 25 333 10 11 23 18 27 15 5-3 9-1 9 3 0 8 17 12 61 16 8 1 20 16 26 34l10 33h-414l5-30c2-16 7-31 11-31 3-1 21-3 40-5 38-4 82-45 91-84 3-14 5-162 5-330 0-294-1-307-23-362-28-68-92-131-154-150-23-7-79-12-123-12-70 0-88 4-135 30-48 26-108 89-96 102 3 2-2 11-10 19-8 9-13 22-10 29s1 16-3 18c-5 3-9 159-10 347-2 341-2 341 20 360 23 20 62 33 112 38 4 1 7 14 7 30 0 24-5 29-31 35-17 3-37 5-43 4s-99-5-206-8zm1952 0c-94-3-172-8-172-12v-26c0-13 14-21 53-30 28-7 54-17 55-22 2-6 8-8 13-4 5 3 9 2 8-3-1-4-1-21 0-38 2-29 2-29 18-10 11 14 14 15 10 4-3-9 0-22 6-28 14-14 24-601 10-601-4 1-25 24-46 53-20 29-68 90-106 136s-79 103-92 127c-12 24-24 42-27 39-3-2 1-13 9-22 13-16 12-17-3-4-10 7-18 19-18 25s-9 17-20 24-20 17-20 23-12 20-26 31c-20 16-23 23-12 29 10 7 9 9-5 9-10 0-15 5-12 10 3 6-1 10-9 10-9 0-16 7-16 15s-9 19-20 25-20 15-20 20c0 6-18 29-39 52-22 23-38 45-36 48 2 4-20 32-50 63l-54 57h-149c-150 0-150 0-149-27 2-33 13-43 49-43 37 0 59-10 51-23-4-6 0-8 11-4 10 4 15 3 11-3-3-6-1-10 5-10s9-4 5-9c-3-5 1-15 8-23 7-7 14-15 14-18s6-43 12-90c14-98 10-562-6-649-10-53-46-101-76-101-7 0-6 4 3 10s10 10 3 10c-6 0-14-4-18-9-3-5-19-12-35-16-22-5-30-12-30-29 0-12 4-26 9-31 6-6 89-8 208-5 198 5 198 5 201 31 3 23-1 27-35 34-21 5-43 7-50 6-6-1-15 4-19 10-5 8-3 9 6 4 9-6 11-4 6 4-5 7-14 10-22 7s-11 0-8 8 0 17-7 22c-8 5-10 3-4-6s4-11-4-6c-7 5-10 14-7 21 3 8 0 15-7 18-9 3-13 92-14 347-2 189 0 340 5 336 7-7 8-11 11-37 0-5 5-7 11-4 5 3 7 0 5-8-3-7 4-22 16-33 14-12 19-13 14-4-7 12-6 13 6 2 8-7 14-16 14-20s15-22 32-41c18-19 29-39 26-45s-3-8 2-4c8 8 15 2 69-64 22-28 35-52 30-59-4-7-3-9 3-6 12 8 130-133 125-148-2-5-1-7 3-3 4 3 63-64 132-150 153-191 190-231 212-228 14 3 17 29 22 222 4 120 7 326 8 456 1 152 5 239 11 243s8 15 5 24c-12 38 51 79 111 72 5 0 20 9 33 20 19 18 21 24 9 34-19 18-62 21-256 15zm533 0c-200-5-210-6-213-25-2-15-1-16 6-7 7 11 10 9 15-7 3-13 13-21 26-21 12 0 21-3 21-8 0-4 16-7 35-6 22 1 35-3 34-10-1-6-1-29 1-51 1-32 3-36 10-20 9 22 9 28 14-135 18-525 18-635-1-670-17-33-22-35-78-40-59-5-60-6-60-35v-30l243-3 242-2v29c0 24-5 29-31 35-17 3-44 6-59 6s-34 8-41 18c-13 16-13 16 5 2s18-14 6 7c-8 12-17 20-21 17-4-2-10 3-13 12-3 8-2 12 4 9 7-4 10 141 10 418 0 340 3 427 13 436 8 6 37 11 65 12 29 1 52 6 52 11 0 4 8 8 17 8s14 3 10 6c-3 4 1 13 9 21 8 9 13 17 11 19-7 7-129 9-332 4zm142-907c-3-10-5-4-5 12 0 17 2 24 5 18 2-7 2-21 0-30zm2686 909-253-2v-29c0-28 2-30 56-37 100-12 94 18 94-464 0-484 2-470-79-470-57 0-74-10-69-41 3-24 3-24 241-27 130-1 238 1 238 5 5 34 2 58-8 59-7 1-30 2-51 3-49 1-75 21-77 57-1 16-4 34-6 39-3 6-4 84-1 174l4 163 44-5c24-2 51-11 60-18 31-26 175-250 168-261-4-6-3-8 4-4 6 3 35-31 70-84 33-50 56-88 52-85-5 3-8-3-7-14s3-18 6-16c2 3 9 1 15-5 15-12 279-15 299-4 8 5 17 17 19 28 2 14-7 22-35 32-21 7-45 10-54 7-9-4-14-2-10 3 3 6-3 16-15 23-16 10-19 10-13-1 5-7-11 5-33 26-23 22-39 43-37 46 3 4-2 13-10 20s-15 18-15 26c0 7-8 19-17 26-10 7-25 22-33 32-13 18-13 19 0 11s13-7 0 10c-8 11-23 28-32 39-10 10-15 23-12 27 2 4-12 20-31 35-20 15-34 33-31 40s0 16-6 20c-7 5-8 2-4-7 4-8 0-5-8 5-9 11-16 26-16 33 0 23-1 28-12 40-7 9 2 15 34 24 24 7 49 20 56 29 11 13 12 13 6 0-5-10 1-8 16 5 33 29 101 136 93 148-4 6 0 8 8 5 22-8 9 144-14 167-10 9-15 21-12 26 4 5 1 9-5 9s-8 5-5 10c4 6 2 9-3 8-14-5-73 63-65 76 5 8 2 7-8-1-9-8-20-9-29-3-25 16-112 38-165 42-27 2-164 2-302 0zm323-93c67-31 104-99 104-191 0-72-46-168-73-151-6 3-7 1-3-6 5-7-11-20-46-36-44-20-68-25-142-25-76 0-87 2-82 16 3 9 6 105 6 214v199l43 3c76 5 151-3 193-23zm1398 90c-2-4 3-10 12-13 8-3 14-14 12-23-2-14 8-20 49-28 89-17 85 0 87-435 0-208 4-376 9-373 17 10 6-71-14-98-16-23-28-29-57-29-65 0-79-8-74-41l4-29h239c200 0 239 2 239 14 0 8 3 21 6 29 4 12-6 17-43 23-26 4-53 7-59 6-16-3-36 47-29 72 5 17 4 18-4 6-8-11-11 106-11 396 0 476-5 452 90 456 55 3 55 3 55 36 0 29-3 32-30 32-372 4-478 4-481-1zm-4176-6c6-2 12-15 12-28 0-24 17-35 54-35s105-86 90-113c-4-6-3-8 1-4 11 10 108-231 101-250-3-8-1-11 4-8 9 6 12 2 14-27 1-7 4-15 8-19 8-5 74-170 176-438 26-68 57-135 70-148 23-25 24-25 37-6 8 11 31 66 53 122 21 56 42 98 47 94 4-5 5-2 1 4-6 11 21 88 154 438 21 55 54 144 75 198 23 60 41 95 47 91s8-2 5 3c-4 6 3 23 15 38 16 20 28 26 49 23 15-3 26-1 23 4-3 4 4 8 15 8 15 0 21 6 21 21 0 11 4 18 8 15 5-3 9 1 9 9 0 13-31 15-189 15-189 0-189 0-186-26 2-20 12-29 40-39 21-7 39-11 41-8 8 8 25-23 30-56 6-36-8-83-83-291-23-63-49-136-57-162-9-27-20-45-26-41-6 3-7 1-4-4 9-14-46-179-58-176-4 1-35 71-67 155s-88 228-123 320c-36 92-65 179-65 195 1 49 28 69 103 72 12 1 17 9 17 31v30l-237-1c-131 0-232-3-225-6zm1157-3c-3-5-2-10 4-10s8-7 5-15c-7-17-1-20 78-35 36-7 59-17 63-28 4-9 9-206 12-437 4-407 3-421-16-443-11-12-23-21-28-20-4 1-32-1-61-5-50-7-53-9-50-35l3-27 439-5c432-5 439-5 446 15 15 41 53 273 47 290-11 27-50 14-67-23-9-18-19-29-23-25-5 4-5 1-2-8 3-8-2-23-11-34-8-11-12-14-8-6 5 9 3 12-5 7-6-4-9-12-5-18 8-13-46-69-59-61-6 3-7 1-4-5 4-6-13-20-40-34-43-20-65-23-194-26-192-4-179-23-179 245v203h95c130 0 159-16 171-95 10-63 17-72 50-71 30 1 29-6 34 136 5 163 1 248-15 263-8 8-12 17-9 19 3 3-7 3-20 1-20-4-27-13-31-42-13-80-17-89-41-112-22-21-37-24-130-27l-104-4v205c0 242-18 219 168 213 108-3 128-7 177-31 53-26 123-103 108-119-4-3-2-6 4-6s16-13 23-29c12-29 40-50 40-30 0 6 4 8 9 4 19-11 22 16 12 97-6 46-12 97-14 113-9 70 27 65-442 65-272 0-426-4-430-10zm4805-7c0-29 13-41 53-48 50-10 83-49 182-222 44-76 91-156 106-178s34-56 42-75 23-44 33-55c17-18 19-38 19-186 0-144-3-168-18-183-9-10-17-22-17-27s-17-9-37-9c-66 0-84-9-81-39 3-26 3-26 243-26s240 0 243 26c3 22-2 27-29 33-17 3-43 6-57 6s-35 11-49 28c-24 27-24 29-21 200 2 111 7 175 14 180 6 4 14 20 18 35s10 26 15 23c4-3 8 0 8 7s34 66 76 132 97 153 123 194c49 77 95 125 122 128 51 5 76 20 76 44s0 24-174 27c-96 1-180 0-186-2-20-8-4-56 19-56 11 0 29-8 40-17 15-13 18-14 12-3-8 13-7 13 8 1 34-28 20-68-82-240-55-91-106-175-114-186-15-19-16-19-28 10-8 17-16 32-20 35-12 9-38 67-34 74 3 3 2 4-2 1-9-7-63 87-56 99 3 5 1 6-5 2-7-4-12-2-12 3v16c0 3-9 14-21 26-11 11-18 27-15 35 4 10 2 12-6 8-8-5-9-2-5 9 3 10 2 17-4 17s-7 5-3 12 3 8-4 4c-16-9-35 31-28 59 5 18 15 25 47 30 30 5 43 13 50 32 5 13 9 26 9 29 0 2-101 4-225 4-208 0-225-1-225-17zm-4067-138c0-8 4-12 9-9s6 10 3 15c-9 13-12 11-12-6z"/></g></svg><svg xmlns="http://www.w3.org/2000/svg" width="1620" height="428" version="1.0" viewBox="0 0 1620 428"><g fill="#c7c7ca" transform="matrix(.1 0 0 -.1 0 428)"><path d="m1192 3038 3-783h620l3 373c1 204 4 372 7 372s76-58 163-129c384-315 699-575 723-598 30-28 57-30 427-25l222 2v1570l-312-2-313-3v-397c0-261-3-394-10-390-5 3-59 49-120 102-588 513-761 666-768 677-6 10-75 13-328 13h-319l2-782zm708 773c0-14 95-75 175-113 61-28 83-33 167-36 72-3 111 0 147 12 28 9 52 16 55 16s6-45 6-99c0-86 4-108 29-169 46-115 122-226 172-252 19-10 19-3 19 320v330h-385c-236 0-385-4-385-9zm4198-323c-20-18-46-40-59-50-20-14-22-19-13-35 9-15 7-31-13-79-13-32-78-203-145-379-66-176-131-341-144-366-25-50-67-82-121-94-38-8-45-38-14-55 21-11 290-14 329-4 15 4 22 14 22 30 0 20-6 25-40 30-54 9-90 38-90 73 0 27 29 121 65 209l17 42h365l41-107c55-142 57-156 37-187-13-20-26-26-54-26-43 0-56-8-65-36-5-17-2-23 16-28 35-9 411-7 426 3 8 4 12 19 10 32-2 19-11 25-41 30-21 3-50 17-64 31-21 22-217 502-350 858-36 99-58 140-72 140-4 0-24-15-43-32zm75-459c31-81 57-149 57-153 0-3-70-6-155-6-94 0-155 4-155 10 0 15 109 310 138 372l17 36 21-56c11-32 46-123 77-203zm2111 451c-66-56-76-70-63-86 7-9 3-29-14-71-14-32-72-184-130-338s-119-314-136-355c-32-80-85-140-122-140-52 0-79-43-36-59 26-10 319-12 334-3 6 4 13 17 17 28 7 23-13 34-61 34-25 0-73 43-73 65 0 21 70 228 83 243 7 9 53 12 189 10l179-3 39-97c59-147 62-163 38-193-13-17-29-25-49-25-68 0-98-52-38-64 42-8 367-6 399 3 15 4 26 15 28 28 3 18-3 23-31 28-19 4-48 15-64 25-35 21-47 49-266 609-84 217-158 396-164 398s-33-15-59-37zm-4-214c0-6 32-94 70-194 39-100 70-186 70-192s-58-10-155-10c-85 0-155 2-155 5 0 4 122 338 145 397 8 19 25 15 25-6zm3276 207c-48-40-56-52-51-72 4-16-8-59-34-125-22-56-90-234-151-396-62-162-121-309-133-327-24-35-65-63-94-63-11 0-28-6-38-14-19-14-19-15-1-35s29-21 165-20c166 1 196 6 196 34 0 16-11 23-50 32-60 15-86 44-78 88 3 16 22 75 42 130l37 100h368l33-79c59-143 67-175 52-202-13-24-20-27-91-39-31-5-38-10-38-29 0-16 7-26 23-30 32-8 357-6 398 3 59 12 49 60-13 61-55 0-84 54-232 437-196 505-230 586-242 590-6 2-37-18-68-44zm76-403c39-96 72-181 75-187 4-10-31-13-155-13h-161l23 68c40 114 116 313 129 336 12 21 12 21 15-4 2-14 36-104 74-200zm-7200 422c-9-6-10-16-3-34 7-19 18-26 49-31 49-6 87-32 104-72 16-38 14-741-3-792-14-42-53-73-93-73-35 0-56-15-56-41 0-23 45-29 220-29 170 0 190 4 190 35 0 23-17 35-50 35-36 0-68 22-91 64-24 41-24 44-26 366-2 179 1 331 6 339 7 11 12 9 21-10 7-13 41-58 75-99 63-77 380-471 494-615 88-111 107-128 132-115 18 10 19 25 19 447 0 305 4 447 12 475 13 43 58 88 89 88s59 19 59 40c0 26-48 32-245 28-160-3-160-3-160-33 0-27 3-30 40-36 53-7 82-27 96-64 6-16 16-39 22-50 16-28 24-595 8-595-6 0-11 5-11 10 0 6-17 29-38 53-21 23-47 54-58 68-73 99-500 622-517 634-16 11-51 15-147 15-69 0-131-4-138-8zm2441-4c-5-7-27-69-48-138-20-69-42-131-48-138-13-16-8-20 29-27 27-5 32-1 74 66 54 86 128 155 180 169 22 6 110 9 199 8l160-3-250-375c-309-464-377-570-381-595-3-18 5-21 87-28 148-13 719-4 738 11 8 7 21 36 27 65 7 29 23 90 37 136 18 64 21 86 12 97-19 24-38 16-59-25-34-67-79-129-117-160-64-53-106-61-315-61-103 0-188 4-188 9s53 89 119 187c301 453 511 777 511 789 0 22-54 25-410 25-266 0-350-3-357-12zm2091-1c-14-37 0-52 56-59 95-11 90 14 90-472 0-423 0-423-22-444-16-14-39-22-73-24-46-3-50-5-53-29-4-37 9-39 244-39 212 0 240 6 232 46-2 15-15 20-56 25-92 12-92 11-92 242v200l46-6c31-3 54-13 73-31 16-15 94-125 175-245l146-218 125-7c132-7 165-1 165 34 0 19-9 24-73 35-46 7-92 51-163 156-27 40-86 126-131 190l-80 115 48 17c69 25 129 75 158 132 21 40 26 63 26 125-1 123-55 196-179 241-56 20-84 22-358 27-262 3-299 2-304-11zm541-68c77-21 135-110 135-205 0-145-98-224-277-224h-73v440h88c48 0 105-5 127-11zm613 74c-2-4-4-17-4-28 1-20 22-30 88-40 21-3 42-14 47-23s10-210 12-445c4-429 4-429-20-448-15-12-39-19-67-19-23 0-46-6-51-12-12-20-12-37 0-45 23-14 517-13 593 2 122 23 196 72 242 159 23 44 27 63 27 141 0 81-3 95-28 138-29 49-118 117-158 120-29 2-24 11 35 55 163 123 132 349-59 422-57 22-76 24-356 28-163 2-299 0-301-5zm565-86c51-33 78-88 79-159 2-80-14-126-55-166-48-47-95-62-188-62h-82l7 77c3 42 6 134 6 206v129l103-4c77-2 110-8 130-21zm0-469c85-26 127-95 127-212 0-76-15-126-53-172-40-48-81-64-164-64-131 0-153 33-153 225 0 72 3 154 6 183l7 52h95c52 0 113-5 135-12zm1400 555c-7-2-13-15-13-28 0-18 8-25 43-33 23-6 54-24 69-39 14-15 92-137 172-270l146-243v-169c0-155-2-170-21-195-16-20-29-26-59-26-21 0-45-3-54-6-19-7-22-54-3-55 70-6 436-4 450 3 21 11 22 44 1 52-9 3-33 6-54 6-30 0-44 6-64 31-26 30-26 33-26 195v164l48 78c277 442 281 446 360 473 33 11 48 22 50 36 2 16-4 21-35 26-53 9-306 8-318-1-6-4-11-16-10-27 0-15 10-22 43-30 76-19 81-57 21-159-154-263-182-307-195-294-13 14-216 364-226 389-9 24 6 41 54 59 44 16 62 45 36 61-14 9-394 11-415 2zm1144 0c-4-3-7-17-7-29 0-25 6-27 85-38 22-3 46-13 52-23 10-13 13-117 13-443 0-427 0-427-23-448-15-14-36-22-59-22-51 0-68-9-68-35 0-20 6-25 43-29 23-3 219-5 435-4 330 3 394 5 402 18 10 16 39 169 47 248 6 51 5 52-20 52-21 0-30-9-51-55-36-79-106-150-172-175-45-16-79-20-184-20-181 0-170-17-170 250v210h83c145 0 186-25 197-118 3-31 10-46 21-47 40-6 44 9 46 162 2 81-1 168-5 193-7 39-11 45-32 45-20 0-26-6-28-30-5-56-31-110-61-128-22-13-52-17-125-17h-96l2 208 3 207h145c94 0 158-5 182-13 46-16 101-71 137-137 27-49 54-66 72-48 12 12-20 256-34 265-15 10-821 10-830 1zm986-9c-9-25 10-48 46-55 68-14 76-28 221-398 262-670 243-631 277-613 18 10 171 395 308 774 61 172 105 238 159 238 32 0 48 15 44 41-3 24-3 24-158 27-175 3-200 0-200-27 0-14 13-24 49-36 58-19 77-52 67-116-4-22-39-131-79-242s-89-248-107-304c-19-57-38-103-42-103s-10 10-13 23c-6 19-111 292-211 549-51 132-43 179 36 192 30 5 43 12 49 29 5 14 4 25-3 29-6 4-107 8-224 8-188 0-213-2-219-16zM1880 2278c0-614 4-675 45-763 87-182 337-275 519-192 51 23 167 122 187 159 17 32 0 41-37 19-95-56-269-69-359-27-60 27-128 99-157 164-32 70-32 218 0 284 26 53 78 103 131 126 46 20 155 19 201-1 126-56 149-222 41-294-45-31-55-29-36 7 20 39 20 129-1 159-39 56-130 66-191 22-99-71-97-243 3-331 44-38 133-64 192-56 107 15 213 89 249 175 22 51 33 155 23 216-19 118-104 231-212 281-59 27-71 29-188 29-125 0-127 0-213-43-5-2-2 9 6 25 48 93 48 273-1 378-52 110-156 245-189 245-10 0-13-113-13-582zm-687-495c6-428 13-513 53-627 46-133 178-303 299-386 170-117 429-180 738-180 258 0 445 38 625 126 101 49 124 65 206 147 153 152 217 287 236 498 5 63 10 275 10 472v357h-310c-288 0-310-1-311-17-1-10-3-142-4-293-4-321-11-359-94-476-91-131-194-179-381-179-104 0-120 3-173 27-74 35-166 123-205 196-58 110-62 138-62 454v288h-633l6-407zm9907 209c-120-32-172-75-222-186-42-92-4-235 83-310 24-20 116-73 204-116 169-82 211-115 240-184 31-74-2-168-73-209-79-46-232-28-308 37-38 33-94 128-94 161s-20 55-50 55-30 0-30-152c0-84 4-159 9-167 12-19 57-6 64 19 5 20 41 28 52 11 3-5 36-20 73-33 53-18 88-23 172-23 98 0 109 2 172 33 70 34 104 67 141 136 18 34 22 57 22 136 0 169-47 224-298 348-91 45-181 96-200 115-64 60-69 158-11 218 36 37 120 63 178 55 112-17 190-84 221-192 14-50 18-54 45-54 30 0 30 0 30 145 0 126-2 146-17 152-11 4-24-3-40-21-24-28-24-28-73-7-62 27-156 51-195 50-16 0-59-8-95-17zm1215 6c-14-42-47-162-59-216-14-62-14-63 7-71 29-11 30-10 65 52 16 28 45 67 63 85 58 59 82 67 209 67h115l3-441c2-434 2-441-19-468-16-21-29-26-62-26-51 0-64-8-68-40-4-25-4-25 226-28 207-2 231-1 242 15 24 31 15 40-47 47-51 6-62 11-80 37-21 29-21 31-13 467l8 437 83 3c151 5 226-34 291-153 20-36 34-50 50-51 12-1 25 4 27 10 3 7-7 64-21 129-14 64-25 119-25 121 0 3-7 11-15 19-13 13-21 13-61 1-70-21-790-20-860 1-59 18-54 18-59 3zm-7893-45c3-24 8-28 38-31 46-4 91-22 88-36-1-6 2-153 6-326 8-335 16-402 60-488 60-117 195-182 381-182 193 0 300 59 363 200 46 101 52 154 59 474 6 284 7 300 27 322 12 13 40 26 66 31 39 7 45 12 48 36 3 27 3 27-193 27s-196 0-193-27c3-25 9-29 50-36 28-6 55-18 70-34 23-25 23-26 26-331 4-343-2-396-52-471-22-32-48-54-90-76-54-27-68-30-155-30-82 1-102 4-136 24-60 34-91 68-117 125-23 50-23 56-23 398 0 339 1 348 21 368 12 13 41 24 70 28 44 6 49 10 52 35 3 27 3 27-233 27s-236 0-233-27zm1228-3c0-25 4-30 25-30 34 0 86-23 106-46 34-41 39-96 39-405 0-355-7-419-46-460-15-16-38-29-50-29-39 0-74-18-74-39 0-10 7-22 16-25s98-6 199-6c175 0 185 1 195 20 15 28 7 37-43 45-61 11-77 21-100 73-20 44-21 67-25 380-2 184 0 332 5 332 4 0 14-9 21-20 14-23 261-333 386-485 45-55 125-155 179-222 90-112 128-146 145-128 4 4 9 212 12 463 5 434 6 459 25 491 23 39 34 47 93 61 35 9 42 15 42 35 0 25 0 25-206 25-205 0-205 0-202-27 3-24 9-29 45-35 58-9 77-22 105-65 22-37 23-46 26-298 2-143 2-282 0-310l-3-50-37 50c-53 70-72 94-346 434l-243 301h-145c-144 0-144 0-144-30zm1262 3c3-25 8-29 48-33 53-7 87-26 94-55 3-11 6-203 6-426 0-476 5-451-100-463-59-7-61-8-58-34 3-27 3-27 243-27s240 0 243 27c3 26 1 27-58 34-51 6-64 11-80 34-19 27-20 46-20 424 0 224 4 404 9 414 5 9 12 25 15 35 7 21 46 37 92 37 26 0 34 4 34 18 0 10 5 23 12 30 9 9-43 12-236 12h-247l3-27zm572 11c3-9 6-22 6-30s10-14 25-14c39 0 74-28 101-82 24-47 116-277 274-685 43-111 86-215 95-232 17-35 40-40 54-13 12 22 242 624 292 764 68 190 108 248 171 248 21 0 31 6 37 23 5 12 7 25 4 30-7 12-363 9-363-4 0-24 22-49 43-49 35 0 66-27 72-64 7-37-6-87-78-286-24-69-69-192-98-274-39-109-55-144-61-130-97 241-240 630-245 665-7 58 18 89 71 89 33 0 46 13 46 46 0 12-38 14-226 14-202 0-225-2-220-16zm1156-13c0-27 2-29 55-33 101-8 95 23 95-467-1-363-3-429-16-446-10-14-35-23-77-30-48-8-63-14-65-29-2-10 2-22 10-27 7-5 205-9 441-9 427 0 427 0 436 23 5 12 19 80 31 151 19 108 20 130 9 137-27 17-39 8-68-51-45-91-79-128-151-163-63-31-69-32-197-32-190 0-181-16-175 318l2 139 110-4c129-4 141-11 162-98 14-54 30-69 55-52 8 5 13 63 15 190 3 173 2 184-17 198-29 22-39 13-51-47-21-105-43-119-185-119h-89v420h123c199-1 259-25 327-133 52-82 57-87 76-80 14 5 16 18 10 89-3 46-11 106-17 134l-11 50h-838v-29zm1030 4c0-28 4-31 72-40 83-11 78 17 78-460 0-301-3-431-12-450-9-20-18-25-49-25-58 0-91-16-87-43 3-22 3-22 241-25l237-2v29c0 31-18 41-76 41-19 0-38 8-50 21-17 19-19 41-22 206-2 102-1 191 1 197 8 20 104 4 122-20 39-48 300-440 300-449 0-19 30-24 157-24 104-1 129 2 143 15 23 24 14 38-31 47-93 20-112 40-255 251-114 167-139 206-139 211 0 2 24 16 53 29 118 57 169 130 171 245 0 82-28 145-86 195-77 66-97 70-450 74-318 3-318 3-318-23zm575-61c23-12 54-40 73-68 28-43 32-56 32-117 0-114-30-166-118-205-43-20-70-24-142-24h-90v189c0 104 3 203 6 221 7 32 7 32 103 28 71-3 106-9 136-24zm1427 59c3-25 8-29 58-36 30-4 62-14 70-23 13-12 15-77 18-439 3-480 4-475-67-475-64 0-82-9-79-39 3-26 3-26 218-29 118-1 225 0 238 3 15 4 22 13 22 29 0 21-6 25-52 31-68 9-84 18-94 52-5 16-7 210-4 433 6 466 2 445 91 457 49 7 54 11 57 36 3 27 3 27-238 27s-241 0-238-27zm1765 20c-11-19 13-53 37-53 47 0 94-58 227-284 72-121 140-233 150-248 17-24 19-46 19-188 0-148-2-163-21-190-18-24-31-29-81-35-57-7-59-8-56-34s3-26 230-29c198-2 228 0 243 14 26 26 13 38-54 49-88 14-90 20-91 231 0 170 0 170 33 225 73 119 250 396 272 424 24 32 71 60 118 70 21 4 27 11 27 30 0 25 0 25-181 25-180 0-180 0-177-27 2-23 9-29 38-33 20-4 41-10 48-14 15-9 16-70 1-99-22-42-212-357-215-355-5 6-202 346-218 376-30 59-13 92 48 92 14 0 26 3 26 8 0 4 3 17 6 30 6 22 6 22-209 22-119 0-218-3-220-7z"/></g></svg><svg xmlns="http://www.w3.org/2000/svg" width="1620" height="428" version="1.0" viewBox="0 0 1620 428"><g fill="#9f9fa1" transform="matrix(.1 0 0 -.1 0 428)"><path d="M1200 3818c-1-2-3-347-6-768-4-516-2-770 5-780 9-13 52-15 308-12 164 2 299 5 300 6s3 169 4 374 4 372 6 372c3 0 64-49 136-108 483-396 726-598 753-623 30-29 30-29 340-27l309 3 3 783 2 782h-620v-401c0-241-4-399-9-397-9 3-812 702-879 766l-35 32h-308c-170 0-309-1-309-2zm700-5c0-14 133-96 195-122 80-33 208-40 288-17 31 9 60 15 64 14 4-2 6-44 4-93-2-77 1-101 24-160 14-38 38-90 52-115 28-47 120-150 134-150 5 0 9 146 9 325v325h-385c-212 0-385-3-385-7zm4190-334c-25-22-51-45-58-51-10-7-10-13-1-24s2-37-31-121c-23-60-87-227-142-373s-112-289-126-319c-30-61-75-99-126-108-36-6-43-16-28-41 7-9 50-12 183-10 163 3 174 4 174 22 0 14-14 23-54 36-83 28-87 48-42 181 53 155 27 140 238 137l185-3 39-100c50-128 58-169 34-195-10-11-28-20-41-20-40 0-74-18-74-40 0-19 6-20 219-20 215 0 220 0 226 21 8 25-8 39-46 39-36 0-77 48-111 130-15 36-88 223-163 415-159 410-187 477-200 481-6 2-30-15-55-37zm3-226c3-16 35-104 71-197 36-92 66-172 66-177s-70-9-156-9c-156 0-156 0-150 28 11 44 128 361 143 385 8 13 20-2 26-30zm2186 221c-45-40-54-54-55-83-1-31-57-185-235-641-22-58-46-118-52-135-26-72-74-121-129-130-36-7-60-41-34-51 6-2 88-3 181-2 166 3 170 4 173 25 3 19-3 23-43 29-51 7-85 35-85 69 0 18 29 109 70 223l12 32 186-2 186-3 33-80c18-44 40-104 49-134 16-52 16-54-5-75-12-11-43-26-69-31-37-8-48-15-50-33-3-22-3-22 221-22 196 0 226 2 231 16 9 23 1 30-48 43-32 8-52 21-69 44-26 35-31 46-242 587-80 206-152 381-159 388-11 11-22 6-67-34zm2-201c0-10 33-103 73-208l73-190-155-3c-85-1-157 0-160 2-3 3 26 88 63 188 38 101 72 193 76 206 10 26 29 29 30 5zm3279 200c-47-40-55-50-52-77 1-17-2-40-7-51-13-26-39-92-91-230-156-416-193-511-210-545-24-46-63-76-113-85-43-8-54-20-37-40 10-12 46-15 185-15 149 0 174 2 179 16 9 24 0 32-46 39-42 7-88 43-88 68 0 17 64 207 79 235 11 21 18 22 194 22h183l47-119c66-168 64-183-35-205-42-9-53-16-53-31 0-19 8-20 219-23 169-2 221 1 228 10 15 24 8 36-24 43-50 10-77 26-98 60-17 27-109 257-269 670-82 210-122 305-129 305-4 0-32-21-62-47zm0-200c0-9 34-101 75-205s75-191 75-193c0-3-72-5-160-5s-160 1-160 3c0 8 53 153 95 262 26 66 49 128 52 138 7 22 23 22 23 0zm607 220c-94-4-98-5-95-25 2-15 14-25 41-32 20-6 51-24 67-40 17-15 87-123 157-240 69-116 135-224 146-240 18-25 20-46 21-195 2-152 0-169-19-198-16-27-27-33-55-33-59 0-80-10-80-36 0-24 0-24 238-22 235 3 237 3 240 25 3 19-3 22-45 28-72 10-77 12-96 44-14 24-17 56-17 194v165l106 169c228 360 215 344 290 372 35 13 50 25 52 40 3 21 1 21-173 21-176 0-176 0-173-22 2-15 13-24 38-31 19-5 41-13 48-19 17-14 15-63-4-101-31-60-206-347-213-347-3 0-13 12-22 28-9 15-59 101-113 192-53 91-99 175-103 188-7 29 7 44 55 57 25 7 38 17 40 31 3 19-4 22-74 27-42 4-95 6-118 5s-85-4-139-5zm-7737-27c0-24 21-36 66-36 34 0 84-51 94-95 13-53 12-654 0-730-11-72-45-108-107-118-40-7-63-31-45-49 5-5 96-7 203-6 191 3 194 3 197 25 3 18-3 23-35 28-66 11-73 16-101 58-27 40-27 40-30 391-2 219 0 347 6 341 9-10 187-230 402-500 58-72 145-181 195-243 98-123 127-140 139-81 3 17 6 221 6 453 0 417 0 422 23 466 16 32 31 48 52 54 70 20 85 29 85 47s-11 19-205 19c-205 0-205 0-205-24s21-36 67-36c12 0 38-14 57-30 50-45 56-87 55-413 0-282 0-282-22-253-12 16-45 57-73 90-28 34-160 197-293 364l-243 302h-144c-144 0-144 0-144-24zm2406-93c-20-65-43-130-51-145-13-25-12-29 5-38 31-17 38-12 84 58 58 88 109 140 160 163 35 16 67 19 214 19 96 0 172-3 170-8-1-4-132-202-291-440-317-478-354-537-337-547 20-12 810-9 822 3s77 245 78 278c0 12-7 24-15 28-15 5-45-18-45-35 0-15-74-121-106-151-62-58-101-67-312-69-106-1-195 1-198 4-8 8 8 35 144 242 69 105 199 301 288 437 150 228 194 298 194 313 0 3-173 5-384 5h-383l-37-117zm2124 94c0-19 7-26 31-31 17-3 42-6 54-6 13 0 32-8 43-17 20-18 21-28 24-452 2-433 2-433-19-451-12-10-47-21-78-25-50-6-55-9-55-31 0-24 0-24 238-22 233 3 237 3 240 24 3 23-19 34-69 34-15 0-38 9-53 21-26 20-26 20-26 221v201l52-5c63-6 55 3 230-258 72-107 140-205 151-217 19-22 28-23 153-23 111 0 133 2 138 16 11 28 7 33-31 39-94 16-105 26-248 236-54 79-114 163-133 187s-31 47-26 51 27 13 50 19c86 25 166 119 180 211 9 60-11 141-47 191-22 30-50 51-97 73-67 32-67 32-384 35-318 3-318 3-318-21zm528-43c52-7 107-51 133-109 23-50 24-143 4-193-38-89-102-124-237-130l-98-4v220c0 221 0 221 23 225 22 5 95 1 175-9zm632 42c0-20 6-25 38-30 82-14 90-18 101-42 8-17 11-151 11-440 0-415 0-415-25-439-13-14-36-26-50-26-14-1-29-3-35-4-5-1-17-3-25-4-9-1-15-11-15-27 0-25 0-25 313-22 312 3 312 3 377 34 123 58 174 136 175 264 0 99-8 122-57 176-45 49-102 83-143 86-32 3-32 12-1 26 40 18 106 83 129 126 48 91 17 227-64 285-77 56-112 61-436 61-293 0-293 0-293-24zm571-59c14-9 36-36 50-59 19-35 24-57 24-114-1-62-5-79-30-120-45-71-95-94-207-94h-88v193c0 105 4 197 8 204 16 25 200 18 243-10zm-8-468c50-14 103-61 118-107 7-20 13-69 13-108 0-60-4-81-30-130-41-82-82-104-191-104-77 0-85 2-115 29-33 29-33 29-36 230l-3 200 43 4c57 6 154-1 201-14zm2539 529c3-20 13-25 68-36 35-7 68-18 72-25 4-6 8-47 8-90s2-230 3-415c2-185 1-348-3-362-7-30-39-47-102-55-43-6-48-9-48-31 0-24 0-24 439-24h439l10 43c21 88 44 237 38 252-12 33-41 15-69-45-15-33-50-82-77-109-67-67-115-81-282-81-179 0-168-16-168 251v211l110-4c102-3 111-5 135-29 18-17 28-42 33-75 6-44 10-49 32-49 25 0 25 0 25 195s0 195-25 195c-23 0-26-5-31-51-13-106-38-124-176-124h-103v418l43 6c23 3 95 2 159-3 99-7 124-12 162-35 49-28 81-66 115-133 20-40 51-57 64-35 5 7-17 197-28 240-5 22-5 22-426 22-420 0-420 0-417-22zm996-3c3-17 13-27 31-31 14-3 34-8 44-11 38-10 46-28 364-836 36-92 69-170 73-172 15-9 37 6 50 33 7 15 31 79 55 142 183 490 290 761 312 793 15 21 37 40 52 43 50 10 71 23 71 44 0 19-6 20-180 20-172 0-180-1-180-20 0-14 10-22 38-29 20-6 47-18 60-26 34-25 29-89-17-220-198-562-187-532-196-524-9 10-245 630-254 669-12 53 12 86 72 97 33 7 43 13 45 31 3 22 3 22-221 22s-224 0-219-25zM1888 2298c-2-310 1-599 5-643 9-98 40-167 101-233 109-116 277-158 426-107 56 19 150 92 191 148 35 48 25 59-30 29-20-11-67-27-106-37-169-42-325 27-394 174-23 49-26 69-26 156 1 82 5 107 22 140 25 47 74 96 123 121 37 19 142 25 192 11 35-9 94-61 114-98 21-41 18-115-7-159-20-34-94-89-105-77-3 3 4 20 15 38 37 60 24 152-25 184-97 63-217-9-231-140-16-134 91-247 234-247 129 0 240 74 283 188 18 49 21 74 18 149-5 115-35 184-112 260-80 78-140 99-286 99-105 1-120-1-168-25-59-29-58-32-26 51 26 66 26 228 0 295-37 96-167 285-196 285-6 0-10-224-12-562zm-691-115c-10-10-8-479 3-698 6-128 16-215 29-267 36-141 107-254 233-373 145-137 317-207 587-241 331-41 684 11 894 130 94 54 154 104 229 191 64 75 138 215 158 299 19 84 29 296 30 639v327h-620v-272c0-294-8-354-54-446-60-118-146-194-259-231-127-41-236-36-346 14-112 52-191 144-239 279-25 70-26 77-26 361l-1 290-306 3c-168 1-308-1-312-5zm9868-203c-98-31-153-87-189-191-20-57-20-94 1-155 38-113 83-152 290-250 161-77 193-99 229-160 22-38 26-54 22-99-5-61-35-113-83-142-46-28-205-26-261 4-79 42-133 117-150 208-5 26-12 37-31 41-13 4-29 2-35-4-11-11-8-306 4-317 13-13 49 7 59 32 5 14 15 23 22 20 194-86 330-96 454-33 177 89 217 322 82 470-44 48-73 67-225 142-189 94-237 133-250 199-14 78 36 160 113 183 139 42 286-36 329-174 17-51 22-59 44-59 25 0 25 0 28 125 4 176-3 195-54 145-26-26-44-31-59-16-6 4-39 18-74 30-82 27-184 27-266 1zm1252 14c-11-19-67-235-67-259 0-20 5-25 24-25s30 10 47 45c35 70 78 116 133 141 44 20 67 24 159 24h107v-447c-1-518 5-488-94-499-53-6-56-8-56-35v-29h230c230 0 231 0 239 23 12 31 9 33-51 40-40 5-59 13-76 33-23 26-23 26-20 467l3 442 104 3c95 2 109 0 157-23 58-28 93-65 126-129 24-48 33-55 59-49 12 4 18 12 15 22-3 9-12 54-21 101s-22 102-28 123c-11 39-11 39-51 30-53-11-850-10-897 1-20 4-39 4-42 0zm-7892-24c-15-24 15-49 62-52 73-5 73-5 79-380 5-348 12-404 60-486 53-90 173-147 333-159 192-13 331 55 397 194 41 88 54 183 55 411 0 114 4 245 8 291 6 74 9 86 34 107 16 13 39 24 52 24 26 0 58 26 52 44-3 8-61 11-193 11-177 0-189-1-192-19-5-24 14-36 56-36 25 0 42-8 62-30 38-41 43-92 37-415-5-309-13-350-86-426-55-56-120-79-225-79-115 1-204 54-249 150-21 43-22 62-25 396-3 352-3 352 23 378 20 20 36 26 70 26 35 0 45 4 50 20 3 11 3 24 0 30-8 13-452 14-460 0zm1225-20c0-28 3-30 38-30 49 0 95-29 116-74 15-33 18-76 19-349 2-340-3-422-29-466-21-36-63-61-103-61-26 0-31-4-31-24 0-13 7-27 16-30 20-8 348-8 368 0 9 3 16 16 16 29 0 19-7 23-40 28-54 7-88 31-108 75-14 32-17 87-19 382-3 345-3 345 20 316 12-15 156-195 321-399 164-205 307-384 318-399 28-40 58-55 72-36 8 10 12 147 14 414 3 500 5 519 47 561 19 19 43 33 57 33 34 0 63 23 55 44-6 15-27 16-204 14-194-3-198-3-201-25-3-19 4-23 51-33 64-13 104-49 118-106 4-22 8-169 8-329v-290l-27 34c-15 19-43 54-62 76-19 23-150 184-290 358l-255 317h-142c-143 0-143 0-143-30zm1260 6c0-27 16-36 66-36 24 0 43-8 59-25 25-24 25-24 25-447-1-490 4-465-94-475-47-5-55-9-59-29-2-14 2-25 10-28 8-4 113-6 233-6 180 0 220 3 230 15 22 26 4 42-51 47-41 4-58 11-76 32-23 27-23 27-23 447s0 420 26 444c20 19 38 25 71 25 36 0 45 4 52 23 5 12 7 25 4 30-2 4-110 7-239 7-234 0-234 0-234-24zm578 19c-3-3-3-17 0-30 3-20 10-25 34-25 60 0 86-43 197-325 56-143 138-352 183-465 44-113 87-212 94-220 10-10 19-12 30-5 9 6 83 188 165 405s161 425 175 461c30 79 85 149 119 149 39 0 55 11 55 36 0 24 0 24-173 24-96 0-176-3-179-6s-4-14-1-24c4-13 18-22 46-27 65-13 82-68 53-163-23-72-206-581-216-599-8-14-9-14-15 4-4 11-59 155-122 320-66 171-118 321-121 348-6 59 15 87 64 87 34 0 62 29 49 50-6 10-427 15-437 5zm1156-10c-12-31 4-45 54-45 38 0 53-5 70-23 22-23 22-26 22-449 0-493 5-465-92-475-52-5-58-8-58-28 0-13 7-26 16-29s199-6 423-6c310 0 411 3 424 13 12 8 25 52 42 147 24 125 24 136 9 147-23 17-30 11-65-59-70-138-164-188-353-188-126 0-140 4-160 43-15 27-17 60-14 222l3 190 108 3c107 3 108 3 137-26 17-17 31-45 35-68 10-62 12-65 37-55 23 8 23 9 23 197 0 189 0 189-26 192-25 3-27 0-34-53-4-36-15-65-30-83-22-26-27-27-139-30l-116-4v189c0 103 3 199 7 211 6 24 6 24 157 20 131-3 156-6 191-25 49-26 84-63 122-128 19-32 37-51 51-53 26-4 28 13 11 139-20 145 35 129-439 129-356 0-411-2-416-15zm1029-1c-9-24 23-44 68-44 21 0 47-8 60-19 24-19 24-19 27-440 2-357 0-425-12-450-15-29-47-41-106-41-20 0-29-6-33-22-4-12-4-25-1-28s110-5 237-5c232 0 232 0 235 26 3 25 0 26-50 32-40 5-59 13-75 32-22 25-23 33-23 221v194h30c73 0 88-15 249-254 84-125 160-233 168-241 11-12 43-15 137-15 126 0 146 6 146 42 0 13-8 18-30 18-37 0-97 29-126 62-12 12-72 97-134 188s-124 177-137 191c-24 26-24 26 31 49 70 28 143 92 167 145 48 104 9 250-82 311-83 56-144 64-459 64-251 0-281-2-287-16zm562-63c43-19 91-68 107-110 5-14 9-56 9-93-1-164-100-231-318-220l-33 2v213c0 118 3 217 7 220 3 4 47 7 97 7 67 0 102-5 131-19zm1447 52c3-24 8-28 38-31 57-5 88-21 99-54 7-20 11-173 11-427 0-483 7-459-130-473-28-3-40-35-18-49 7-5 110-9 229-9 221 0 239 3 239 41 0 12-13 18-57 22-47 5-62 11-81 34-23 28-23 28-20 445s3 417 26 440c15 15 38 24 75 28 47 5 52 7 52 30 0 25 0 25-233 28l-233 2 3-27zm1758 13c0-32 13-46 42-46 46 0 78-41 233-301 77-129 143-235 147-237 5-2 8-81 8-175 0-163-1-173-23-199-17-22-35-30-77-36-42-5-56-12-58-26-2-10 2-22 10-27 7-5 111-9 230-9 186 0 219 2 233 16 26 26 12 38-50 46-31 4-63 12-70 18-24 20-34 96-34 237v141l142 228c161 258 210 317 276 328 36 6 42 9 39 29-3 22-6 22-180 25-178 2-178 2-178-23 0-21 6-26 40-31 95-15 89-60-38-270-55-93-107-177-115-188-12-17-24-1-129 180-64 110-118 208-122 220-8 26 17 49 61 58 31 7 49 29 37 47-3 5-99 9-215 9-174 0-209-2-209-14z"/></g></svg><svg xmlns="http://www.w3.org/2000/svg" width="1620" height="428" version="1.0" viewBox="0 0 1620 428"><g fill="#747376" transform="matrix(.1 0 0 -.1 0 428)"><path d="M1200 3040v-780h610v375c0 206 3 375 8 375 4 0 81-61 172-136s284-234 430-354c146-119 274-227 284-239 19-21 25-21 338-21h318l-2 778-3 777h-610v-398c0-263-3-397-10-397-6 0-216 180-468 400l-458 400h-609v-780zm710 767c0-12 128-91 190-117 75-31 216-39 280-15 85 31 78 37 72-63-5-100 6-148 64-263 41-83 133-188 146-165 4 8 7 153 6 323l-3 308h-377c-208 0-378-3-378-8zm4175-335c-42-37-50-51-51-81-1-32-266-738-307-817-20-40-70-82-105-90-52-11-54-12-42-34 10-19 21-20 179-20 145 0 170 2 175 16 9 23 1 31-41 39-21 3-49 13-62 22-21 13-23 21-19 66 3 29 20 93 39 142l34 90h378l40-100c67-168 61-204-33-222-36-7-46-13-48-31-3-22-3-22 216-22 213 0 220 1 225 21 6 21-10 32-65 43-15 3-36 19-47 35-17 24-189 452-355 883-20 53-42 98-49 101-7 2-35-16-62-41zm8-214c2-18 25-82 50-143 25-60 57-140 71-177l25-68h-329l44 123c110 306 127 339 139 265zm2203 227c-15-14-39-33-53-42-21-14-24-22-18-49 3-18 1-41-4-51-15-26-30-65-142-363-54-146-103-274-109-285-5-11-19-46-31-78-25-68-75-122-127-134-27-6-38-15-40-31-3-22-3-22 175-20 173 3 178 4 181 24 3 19-3 22-47 28-92 12-100 55-42 216l38 105 189 3 189 2 42-107c23-60 44-124 48-144 6-31 3-38-21-53-15-10-44-21-65-23-36-5-55-24-43-44 3-5 101-9 219-9 205 0 215 1 225 20 12 22 11 23-43 34-15 4-41 19-57 34-32 28-41 50-225 522-49 124-110 279-136 345s-53 121-61 123c-8 1-27-9-42-23zm-11-222c5-22 83-231 140-375 7-17-5-18-154-18-123 0-161 3-161 13 0 11 32 99 126 350 27 70 37 76 49 30zm3274 204c-38-34-48-50-51-82-3-22-33-112-67-200s-96-249-136-357c-113-301-124-318-206-342-32-10-44-18-44-32 0-18 11-19 171-22 145-2 173 0 184 13 16 20 11 25-42 36-51 12-88 43-88 75 0 12 18 73 40 135s40 115 40 116c0 2 85 3 189 3h189l46-117c25-64 46-128 46-143 0-37-28-59-83-66-41-6-47-10-47-30 0-24 0-24 215-24 205 0 215 1 225 20 8 15 8 21-2 24-66 19-95 36-115 64-21 33-73 158-252 622-122 313-136 345-152 347-8 1-35-17-60-40zm5-204c4-16 38-107 77-203 38-96 69-179 69-183s-72-7-160-7c-90 0-160 4-160 9s22 67 49 138c26 70 61 161 76 201 14 39 30 72 35 72 4 0 11-12 14-27zm-7132 205c2-17 14-25 48-33 120-31 121-34 120-464 0-190-5-363-9-385-13-54-54-94-107-102-30-4-44-11-47-26-3-10 0-21 7-24 6-2 97-3 201-2 180 3 190 4 190 22 0 15-12 23-50 32-57 15-89 46-104 102-12 43-15 692-3 692 4-1 23-23 42-50s143-182 275-345c132-164 269-334 303-379 44-55 71-82 88-84 24-3 24-3 25 260 1 145 4 356 8 470 7 239 11 251 96 279 50 17 77 45 53 54-8 3-99 4-203 3-182-3-190-4-190-23 0-15 9-21 36-26 20-3 51-14 70-25 62-36 64-46 67-391 2-172-1-313-5-313s-16 12-25 28c-10 15-35 48-55 73-21 25-153 189-293 363l-254 316h-144c-142 0-143 0-140-22zm2396-125c-26-81-47-148-45-149 1-1 12-5 24-8 18-6 27 2 59 51 61 96 103 142 157 170 49 26 61 27 212 31 88 1 166-1 173-6 11-7-57-116-291-470-168-253-311-470-317-482-27-51-31-50 403-50 468 0 410-19 453 145 32 122 35 158 13 163-11 2-27-16-49-54-46-83-122-159-178-180-36-13-90-18-236-22-109-2-192 0-197 5-9 9 122 213 522 817 55 81 99 157 99 167 0 18-14 19-378 19h-377l-47-147zm2136 132c-9-24 3-32 58-38 33-4 60-14 72-27 20-20 21-32 24-444 3-424 3-424-20-450-17-19-37-28-78-34-46-6-55-11-55-27 0-19 8-20 229-23 233-2 245-1 246 34 0 7-24 15-54 18-30 4-62 13-71 20-26 19-33 89-27 267l5 159h42c27 0 51-7 66-18 12-11 93-122 178-248l156-229 134-3c134-3 150 1 151 33 0 6-26 16-58 23-74 15-95 37-247 257-64 94-126 180-138 192-16 18-17 23-6 27 162 48 235 132 233 271-1 116-68 196-194 236-55 17-94 19-351 19-244 0-291-2-295-15zm572-65c28-14 56-38 72-63 24-37 27-50 27-132s-3-95-27-132c-43-65-101-88-223-88h-100l2 208c0 114 4 215 7 224 10 25 180 13 242-17zm586 59c2-19 13-24 62-34 35-7 65-19 73-30 19-28 19-862-1-888-15-20-66-37-109-37-24 0-28-4-25-22 3-23 3-23 308-23 293 0 307 1 361 23 73 29 134 82 166 146 36 69 38 190 6 251-36 69-111 125-178 135l-40 5 52 33c106 68 139 130 131 243-7 95-40 141-128 183-65 31-65 31-373 34-309 3-309 3-305-19zm507-38c57-11 91-37 119-91 52-104 11-250-86-299-41-21-157-37-197-27-25 6-25 6-25 210 0 111 3 206 7 209 9 10 129 8 182-2zm36-486c129-33 185-159 139-314-21-73-75-125-143-140-102-22-171-7-201 42-18 29-20 51-20 223 0 105 3 194 7 197 12 13 158 7 218-8zm1412 538c-17-16-4-33 33-43 23-6 54-23 70-38s88-126 161-247c72-121 140-232 150-247 17-23 19-45 19-188 0-147-2-166-21-196-18-30-26-34-80-40s-60-9-57-28c3-21 8-21 227-24 224-2 251 1 251 33 0 8-22 15-60 19-50 6-62 11-80 35-18 27-20 44-20 203v173l83 130c46 72 114 179 152 238 73 116 112 156 172 173 27 8 39 17 41 32 3 22 2 22-172 22-169 0-176-1-176-20 0-13 9-21 28-26 63-13 72-21 72-66 0-36-16-70-112-230-62-103-115-185-119-182-4 2-18 23-31 47-14 23-66 112-116 198-51 86-92 166-92 177 0 26 25 52 50 52 32 0 50 11 50 31 0 18-11 19-208 19-115 0-212-3-215-7zm1153-17c0-21 6-24 54-30 99-13 91 26 91-470 0-498 7-463-93-481-47-9-57-14-57-30 0-20 10-20 433-23 502-3 439-25 473 170 17 99 18 122 7 129-22 14-27 11-54-43-79-158-175-209-384-207-154 2-160 12-160 261 0 97 3 183 6 192 5 13 25 16 111 16 105 0 105 0 139-34 25-25 34-43 34-67 0-46 12-63 39-54 20 6 21 12 21 189 0 151-3 186-15 196-21 18-45-4-45-42 0-40-24-92-51-112-30-21-227-24-234-3-3 6-2 102 2 212l8 200 146-1c129 0 150-3 191-23 52-25 99-73 140-144 60-103 75-14 32 196l-6 27h-414c-414 0-414 0-414-24zm992 2c2-17 14-25 43-34 69-19 67-15 298-604 36-91 84-213 107-272 22-59 49-116 58-128 33-39 18-72 273 604 129 345 145 375 214 397 38 12 51 21 53 38 3 21 3 21-175 19-150-3-178-5-178-18 0-9 17-20 40-28 96-31 99-73 20-298-31-87-82-232-113-321-31-90-60-163-63-163s-28 60-56 133c-28 72-79 204-113 292-98 252-104 274-86 312 11 22 24 33 48 38 60 12 68 16 68 36 0 18-9 19-221 19-220 0-220 0-217-22zM1892 2228l3-633 33-70c95-200 332-285 527-190 53 26 175 139 175 163 0 8-6 12-12 9-133-59-143-61-238-62-77 0-104 4-141 21-66 31-121 84-155 151-27 53-29 67-29 163 0 117 13 158 70 215 53 52 100 70 185 70 132-1 201-57 208-170 4-74-18-120-74-152-57-33-67-29-38 15 22 31 25 45 22 90-5 63-33 97-90 113-119 32-215-102-174-243 29-100 112-157 227-158 56 0 77 5 137 35 120 60 168 154 160 309-6 109-38 175-123 255-48 44-79 64-117 76-119 35-272 28-344-16-17-10-34-19-37-19-2 0 6 26 18 58 28 71 39 179 26 252-15 75-80 204-138 271-92 108-84 165-81-553zm-690-475c5-487 9-522 74-659 91-194 254-338 471-420 255-96 662-109 973-30 36 10 117 42 180 73 106 51 122 63 215 157 108 110 153 176 191 284 40 115 46 202 48 627l1 400h-610l-5-300c-6-336-11-363-87-473-70-102-153-158-276-187-239-56-447 63-539 311-21 55-23 81-28 354l-5 295-303 3-304 2 4-437zm9892 236c-99-23-196-111-210-192-4-20-11-40-15-43-5-3-9-16-9-30 0-16 4-23 11-18 8 5 10-2 7-21-17-89 74-197 228-270 54-26 123-58 153-72 142-68 199-190 138-298-60-106-250-123-369-32-48 37-95 112-104 170-6 35-27 57-54 57-7 0-10-50-8-162 3-187 10-199 62-123 14 19 15 19 73-8 85-39 142-50 246-45 76 3 103 9 149 31 107 52 162 144 163 267 0 62-5 85-28 132-39 80-97 126-255 203-184 89-229 119-254 168s-21 125 9 165c61 85 236 96 330 22 41-32 80-91 93-140 13-47 25-61 46-53s25 49 18 169c-6 99-9 114-24 114-10 0-24-10-33-22-15-23-15-23-63-4-121 46-207 56-300 35zm1224 4c-14-24-69-255-64-268 11-30 42-16 64 30 29 61 89 124 137 146 31 14 65 19 153 19h112v-448c0-447 0-447-25-475-22-22-34-27-75-27-46 0-50-2-50-24 0-25 0-25 218-28 119-2 225 0 235 5 9 4 17 17 17 27 0 17-7 20-40 20-51 0-85 16-99 47-17 36-15 889 2 900 20 13 202 4 242-12 53-23 108-77 135-134 18-40 29-51 47-51 17 0 23 6 23 23 0 26-47 248-54 255-3 2-28-1-58-8-60-13-843-9-889 4-15 4-29 4-31-1zm-7881-20c-4-3-7-14-7-24 0-18 27-29 72-29 18 0 33-9 47-28 19-27 20-46 22-345 2-341 7-394 46-470 65-130 192-183 415-175 98 3 121 8 170 31 91 44 150 122 184 244 13 45 18 126 23 368 7 365 6 362 102 379 39 7 60 40 32 50-8 3-93 6-189 6-174 0-174 0-174-24 0-22 6-26 45-32 56-8 91-46 100-107 4-23 5-170 3-327-5-322-11-360-75-431-58-64-103-82-216-87-90-4-101-2-153 23-35 17-66 42-85 68-56 77-60 108-57 481 3 339 3 339 28 357 14 10 43 20 65 21 35 3 40 7 43 31 3 27 3 27-216 27-120 0-222-3-225-7zm1217-8c-12-30 4-45 47-45 33 0 47-6 74-33 54-54 57-83 53-456-3-316-4-339-24-381-26-57-45-73-97-79-34-5-43-10-45-28-3-23-3-23 198-23s201 0 198 23c-2 15-11 23-28 25-63 8-91 24-113 65-21 40-22 55-25 347-5 454-26 431 168 185 91-115 179-225 196-244 17-20 88-108 158-196 172-216 181-226 198-220 13 5 16 74 22 449 3 243 11 458 16 476 13 45 57 90 89 90 31 0 45 9 54 32 9 26-15 29-218 26-170-3-180-4-180-22 0-15 11-23 45-31 64-17 87-31 107-68 16-28 18-69 21-344 2-192-1-313-6-313-6 0-12 6-15 13-2 6-67 89-143 183-77 94-200 247-274 340-218 272-180 244-336 244-110 0-136-3-140-15zm1269 8c-7-2-13-13-13-23 0-19 26-30 76-30 20 0 39-9 55-26 24-26 24-26 27-422 1-240-2-411-8-432-14-50-43-70-101-70-46 0-49-2-49-25 0-25 0-25 108-26 152-3 354-1 357 3 2 2 5 12 7 23 3 17-4 21-56 26-101 11-96-15-96 477 0 423 0 423 25 447 16 17 35 25 58 25 41 0 73 21 64 44-6 14-31 16-224 15-120 0-224-3-230-6zm569-20c2-23 9-29 33-31 38-4 71-35 100-92 12-25 95-232 185-460 89-228 169-428 177-443 9-17 21-27 31-25 18 3 49 80 228 558 129 345 132 353 165 404 19 31 37 47 56 51 53 12 75 25 71 43-3 15-21 17-176 20-172 2-172 2-172-22 0-21 6-25 40-31 49-8 73-39 73-93-1-30-221-674-237-689-2-2-13 22-24 54s-67 180-125 328c-57 149-108 284-111 302-12 52 14 89 68 97 31 5 45 12 49 26 3 10 2 21-1 24s-102 6-219 6c-214 0-214 0-211-27zm1161 20c-7-2-13-13-13-23 0-15 11-20 55-25 31-4 66-15 78-25 22-18 22-18 22-450v-432l-28-24c-22-18-40-24-78-24-45 0-49-2-49-24 0-24 0-24 403-31 235-4 417-3 437 2 35 9 35 9 57 119 32 160 32 178 7 182-17 2-27-8-47-50-39-80-93-137-157-166-47-22-73-26-178-30-67-2-133-1-145 2-13 3-31 20-41 38-15 29-17 59-14 228l3 195 85 3c142 5 200-32 200-128 0-28 3-31 27-28 26 3 26 3 29 183 2 185-1 205-37 205-14 0-19-7-19-27 0-45-18-99-40-118-26-24-110-37-187-29l-63 6v204c0 131 4 205 10 209 18 11 272 5 313-7 52-16 122-80 159-145 20-36 36-53 47-51 13 3 15 15 13 73-2 39-9 97-15 130l-12 60-405 2c-223 1-411-1-417-4zm1040 1c-7-3-13-14-13-24 0-18 35-30 86-30 12 0 32-12 43-26 21-26 21-37 21-448 0-490 4-466-94-474-50-4-56-7-56-27s6-23 68-28c51-5 251-3 395 3 4 0 7 11 7 25 0 23-4 25-46 25-37 0-51 5-75 29-29 29-29 29-29 225v196h44c28 0 52-7 68-20 14-10 87-111 163-223 197-293 162-262 297-263 62 0 123 4 136 10 36 15 23 40-26 47-65 8-106 50-245 250-70 101-135 189-143 196-22 16-11 29 42 47 106 36 184 138 184 241 0 84-17 125-73 180-86 83-117 90-457 92-157 1-291 0-297-3zm570-83c112-69 127-264 27-354-50-46-126-69-217-65l-68 3-3 222-2 222 32 3c79 7 194-8 231-31zm1424 83c-13-13-7-42 9-48 9-3 31-6 50-6 24 0 43-8 59-25 25-24 25-24 25-441 0-371-2-419-17-444-18-31-38-40-94-40-37 0-60-23-41-42 5-5 112-7 238-6 221 3 229 4 229 23 0 17-8 21-54 25-42 5-58 12-77 33-24 28-24 28-24 446 0 417 0 417 28 444 15 15 39 27 53 27 48 0 70 11 67 34-3 21-7 21-224 24-121 1-223-1-227-4zm1757-9c-9-22 15-45 46-45 41 0 76-46 218-287 68-114 133-220 143-235 17-24 19-46 19-198 0-172 0-172-29-201-24-24-38-29-76-29-47 0-69-20-47-42 12-12 417-18 450-6 31 11 25 42-8 46-77 8-91 14-110 45-18 28-20 51-20 198v165l68 105c37 57 101 158 142 224 95 153 139 201 199 219 51 15 67 42 29 51-13 3-93 4-178 3-145-3-155-4-155-22 0-15 11-22 45-30 38-9 46-16 54-44 7-27 5-42-13-78-28-58-200-342-211-349-8-5-126 186-215 348-46 84-41 111 23 122 27 4 42 12 45 25 3 10 2 21-1 24s-97 6-209 6c-173 0-205-2-209-15z"/></g></svg><svg xmlns="http://www.w3.org/2000/svg" width="1620" height="428" version="1.0" viewBox="0 0 1620 428"><g fill="#4b494d" transform="matrix(.1 0 0 -.1 0 428)"><path d="m3027 3812-288-2 3-400c2-220 0-400-3-400-7 0-811 700-874 761l-41 39h-624V2260h610v376c0 329 2 375 15 370 18-6 863-700 887-727 15-18 34-19 326-19 276 0 311 2 316 16 3 9 6 357 5 774 0 758 0 758-22 761-12 2-152 3-310 1zm-1117-6c0-10 137-91 192-113 90-37 203-42 285-14 34 12 65 21 67 21 3 0 2-38-1-85-7-94 12-168 69-277 30-57 122-167 131-158 3 3 7 146 9 318l3 312h-377c-208 0-378-2-378-4zm4194-319c-10-13-32-32-47-42-22-14-27-23-22-44 3-16-4-50-20-91-30-75-111-286-190-497-104-275-125-309-214-333-37-10-40-13-31-30 10-19 22-20 179-20 158 0 169 1 174 19 4 16-5 23-51 38-40 13-61 26-71 45-14 24-13 34 18 125 56 167 37 153 209 154 81 0 161 2 177 4 17 2 35 1 40-3 13-8 83-185 95-236 11-48-16-84-69-92-50-8-65-18-58-38 6-15 31-16 219-14 209 3 213 3 216 24 2 18-3 23-31 28-79 15-73 2-292 566-196 505-187 489-231 437zm-14-214c0-9 21-68 46-132s59-151 75-193l28-78h-165c-165 0-165 0-159 23 12 38 137 371 147 390 10 20 28 14 28-10zm2183 189c-41-37-51-52-47-69 4-13-10-62-35-125-22-56-56-146-76-198s-42-111-50-130c-7-19-34-91-60-160-92-243-118-283-199-299-22-5-31-12-31-26 0-19 9-20 166-23 137-2 168 0 178 12 18 22 7 33-41 39-88 12-98 68-39 222l38 100 179 5c98 3 184 4 190 2 13-3 93-204 101-254 5-34 3-39-28-57-19-12-46-21-61-21-31 0-59-36-36-45 8-3 108-4 223-3 201 3 210 4 210 23 0 13-9 21-30 25-51 11-74 29-99 78-13 26-92 223-175 437-84 215-158 404-165 420-7 17-19 45-26 63-7 17-18 32-24 32-6-1-35-22-63-48zm7-177c0-8 34-102 75-210 41-107 75-197 75-200s-74-5-165-5c-127 0-163 3-160 13 5 15 129 352 144 390 11 29 31 37 31 12zm3283 183c-39-33-48-48-49-75-1-19-6-44-12-56-7-12-42-101-78-197s-83-220-104-275-54-143-74-195-44-106-54-120c-26-35-80-70-108-70-29 0-39-16-24-35 10-12 44-15 169-15 86 0 162 4 170 9 23 15 5 41-28 41-42 0-91 44-91 81 0 15 18 78 41 138l41 109 181 4c116 2 186 0 193-7 10-9 81-183 98-242 10-33-30-72-84-81-36-6-45-12-45-27 0-19 8-20 215-20 215 0 215 0 218 23 3 19-1 22-29 22-24 0-41 9-68 38-37 39-35 34-328 782-36 91-69 175-74 188-12 30-21 28-76-20zm7-210c0-10 7-32 15-50s34-85 59-148c24-63 51-132 60-152l16-38h-165c-125 0-165 3-165 13 0 17 140 389 153 405 8 11 12 11 18 0 5-7 9-21 9-30zm-7137 216c-7-19 13-34 47-34 39 0 90-37 108-78 14-31 17-83 20-345 3-297-4-415-29-469-15-33-70-68-108-68-28 0-32-3-29-22 3-23 4-23 194-26 185-2 192-2 197 18 6 24 4 26-49 35-47 7-76 33-99 87-13 31-15 92-14 380 0 343 0 343 22 314 24-31 222-279 500-624 121-150 185-222 196-220 14 3 16 48 21 458 4 407 7 458 22 487 22 40 64 73 94 73 25 0 57 27 49 41-4 5-93 9-201 9-195 0-195 0-192-22 2-17 12-24 38-28 51-9 95-38 114-77 14-29 16-79 16-343 0-193-4-310-10-310-5 0-15 10-21 23-7 12-27 40-46 62-60 72-234 287-376 465-205 257-167 230-324 230-113 0-135-2-140-16zm2437 4c0-7-20-73-44-146-42-129-43-133-24-143 11-6 21-9 23-7s26 38 54 80c104 155 154 178 389 178 141 0 153-1 150-17-2-10-120-193-264-408-318-476-367-553-360-571 8-21 798-21 815 0 16 19 83 266 77 283-9 22-36 14-48-14-23-53-98-150-137-177-68-47-117-56-318-56-140 0-183 3-183 13 0 6 76 126 168 264 381 575 462 701 462 717 0 15-35 16-380 16-297 0-380-3-380-12zm2100-12c0-24 4-26 40-26 46 0 95-21 104-45 3-9 6-206 6-437v-420l-29-29c-24-23-38-29-74-29-44 0-59-11-50-37 7-20 446-18 463 2 17 21 4 35-33 35-46 0-100 30-108 60-10 37-10 373 0 389 6 10 20 11 52 6 59-10 86-40 244-275 72-107 138-202 148-212 14-15 35-18 142-18 113 0 125 2 135 19 12 23 8 26-45 36-71 12-98 39-225 222-68 98-136 194-152 214-15 20-28 39-28 42 0 2 17 7 39 11 52 8 129 62 165 115 24 36 30 57 34 117 6 95-14 150-72 201-84 73-103 77-448 81-308 3-308 3-308-22zm520-37c101-23 150-94 150-214 0-159-76-224-262-225h-98v203c0 111 3 212 6 225 6 20 12 22 83 22 42 0 96-5 121-11zm634 46c-10-24 6-35 51-35 32 0 52-7 72-24 28-24 28-24 31-425 2-264-1-414-8-441-12-46-35-62-100-70-37-4-45-9-45-25 0-19 8-20 267-23 318-3 381 6 468 65 97 67 143 184 119 300-19 95-108 179-203 193l-41 6 35 18c107 57 160 135 160 233-1 112-59 187-176 223-60 18-92 20-345 20-235 0-281-2-285-15zm550-55c16-8 42-32 59-52 55-69 48-212-15-284-47-53-81-66-185-72l-93-5v435l103-4c62-2 113-10 131-18zm7-476c63-19 109-63 127-121 30-101 1-236-63-292-83-72-254-67-292 9-9 17-13 85-13 223v197h93c57 0 115-6 148-16zm1396 531c-7-15 20-35 47-35 37 0 92-73 218-284 72-121 140-232 150-245 16-21 18-44 18-195 0-165-1-172-24-201-19-24-33-30-77-35-46-4-54-8-54-25 0-19 8-20 226-23 190-2 228 0 238 12 19 23 6 33-50 38-89 9-93 18-99 226l-6 177 67 105c36 58 103 164 147 236 89 144 139 197 201 214 31 8 41 16 41 31 0 19-6 19-172 17-154-3-173-5-176-20-3-14 6-19 37-24 50-8 62-22 63-71 0-32-19-71-112-226-62-103-116-187-119-187s-15 17-27 38c-11 20-51 89-89 152-111 186-127 218-123 246 3 28 13 36 63 51 17 4 30 15 30 23 0 23-410 28-418 5zm1155-7c3-20 11-24 57-30 91-11 86 20 89-467 3-429 3-429-21-456-18-22-35-29-75-33-47-4-52-7-52-28 0-24 0-24 423-24 232 0 428 4 435 8 9 6 62 253 62 289 0 2-10 3-23 3-17 0-28-12-46-51-36-74-101-142-163-169-44-19-76-24-184-28-128-4-130-4-160 21-29 25-29 25-32 236l-3 211h106c148 0 172-15 190-122 6-40 24-49 44-24 9 11 11 63 7 188-3 95-5 176-5 181-1 4-9 7-20 7-14 0-21-12-30-57-7-37-20-67-38-85-26-27-29-28-140-28h-113v193c0 105 3 203 7 216 6 23 6 23 157 19 130-3 157-7 192-25 48-25 105-86 134-143 14-28 27-40 41-40 21 0 21 3 15 68-4 37-12 94-19 127l-12 60-413 3c-413 2-413 2-410-20zm990 0c2-14 11-24 23-26 58-9 74-24 115-106 22-44 95-220 161-391 177-458 203-520 222-523 19-4 37 29 82 152 18 50 61 163 95 251s77 203 96 255c107 294 136 345 204 356 37 6 56 26 44 45-3 5-81 9-175 9-159 0-169-1-169-19 0-14 12-22 46-30 38-10 48-17 60-48 10-23 13-49 9-71-3-19-52-161-107-316-55-154-105-296-110-313-5-18-13-33-17-33-11 0-260 645-267 692-5 30-2 41 19 62 15 14 37 26 50 26 30 0 62 23 53 38-5 9-71 12-222 12-215 0-215 0-212-22zM1890 2252c0-646 1-667 55-757 37-64 105-125 175-159 60-29 73-31 170-31 95 0 111 3 162 28 68 34 209 177 174 177-3 0-26-11-51-24-98-52-259-60-343-17-63 32-120 88-150 145-22 43-27 68-30 152-5 111 8 158 62 221 101 119 326 108 392-19 23-45 22-127-2-169-23-38-77-79-106-79-19 0-19 1 0 28 41 57 37 146-8 187-66 60-191 19-221-73-30-91-3-193 66-250 128-105 354-41 426 121 19 42 23 70 24 147 0 83-3 102-27 153-35 75-116 159-178 186-117 50-283 48-378-4-43-24-43-24-36-2 3 12 13 34 21 49 38 75 35 246-7 342-37 88-154 246-181 246-5 0-9-264-9-598zm883-70-33-3v-278c0-298-6-344-55-440-33-67-123-161-183-194-140-76-328-74-465 6-59 35-136 120-169 189-53 107-58 149-58 445v273h-612l5-432c6-492 9-516 81-663 112-228 304-375 579-445 272-69 666-58 915 26 268 89 482 306 546 554 18 69 35 437 36 788v172l-77 1c-311 3-483 4-510 1zm8341-192c-65-14-109-35-154-76-71-64-91-126-79-241 14-131 59-175 291-288 168-81 184-92 222-149 21-31 26-51 26-98 0-67-16-104-60-142-86-72-264-54-358 37-40 38-67 87-83 151-9 39-15 46-35 46-24 0-24 0-24-155s0-155 25-155c15 0 25 6 25 14 0 7 7 19 15 26 12 10 27 7 77-14 118-49 225-59 332-31 159 41 247 188 213 352-25 118-88 177-298 277-219 105-255 140-247 249 4 55 8 63 45 97 68 64 180 72 282 21 50-26 100-90 121-155 13-38 22-52 38-54 22-3 22-1 22 137 0 116-3 141-14 141-8 0-23-11-34-25-20-25-20-25-97 6-83 33-180 44-251 29zm1188-57c-47-162-55-204-44-215 18-18 37-3 70 54 66 116 124 149 274 156 70 3 102 1 113-8 13-11 15-68 15-419-1-223-5-426-9-449-11-58-31-75-94-82-45-4-52-8-55-28-3-22-3-22 230-20 225 3 233 4 233 23 0 17-9 21-55 27-64 8-86 28-95 91-3 23-5 223-3 445 3 344 5 404 18 413 25 17 216 2 259-21 47-24 94-73 124-130 25-49 67-69 67-32 0 32-50 246-59 255-6 6-23 4-43-4-24-9-127-14-379-17-316-3-457 3-526 23-20 6-23 1-41-62zm-7824 39c-39-2-48-7-48-22 0-14 10-20 49-25 33-4 56-15 73-32 23-25 23-25 28-386 5-351 6-363 28-412 60-130 189-195 392-195 198 0 304 67 369 233 24 60 25 73 31 382 4 196 10 330 17 345 16 37 44 58 88 68 25 5 41 14 43 25 3 16-13 17-182 17-176 0-186-1-186-19 0-14 10-20 44-25 47-7 82-33 97-73 15-39 11-597-5-664-18-80-46-129-95-166-53-41-106-55-202-55s-165 28-215 85c-60 71-64 100-64 482 0 342 0 342 23 363 13 13 43 25 70 28 37 5 47 11 47 25 0 21 7 20-230 23-69 1-146 0-172-2zm1959 1c-68-6-61-32 13-49 62-14 106-55 115-109 3-16 4-165 3-329l-3-299-50 66c-27 36-168 212-313 391l-263 326h-145c-134 0-144-1-144-19 0-14 9-19 44-23 59-7 101-39 121-92 15-38 16-86 13-397-3-299-6-360-19-390-20-44-63-79-98-79s-55-15-48-34c6-15 29-16 199-14 185 3 193 4 193 23 0 15-8 21-30 23-55 5-86 24-108 66-21 40-22 53-25 389-2 191 1 347 5 347 5 0 13-8 19-17 11-18 248-316 387-487 39-49 119-148 177-220 67-83 114-132 127-134 22-3 22-3 26 445 2 315 7 459 16 485 15 46 49 74 101 83 29 5 40 12 40 24 0 14-11 20-52 25-54 6-214 5-301-1zm1771 1c-10-3-18-14-18-23 0-14 11-20 40-25 73-11 91-69 56-176-36-111-204-578-215-598-8-14-10-15-15-2-28 80-78 211-149 395-110 286-113 296-97 335 14 33 43 50 86 50 17 0 24 5 24 20 0 19-7 20-216 20-215 0-215 0-212-22 2-16 9-22 23-21 36 3 83-36 109-90 14-29 102-247 195-486 94-239 175-439 180-444 19-19 39 2 59 60 11 32 62 166 112 298 51 132 107 281 125 330 100 274 126 318 194 330 32 5 60 29 49 41-6 5-314 13-330 8zm824-1c-366-3-393-4-390-20 2-13 18-20 58-26 101-14 95 14 98-460 1-226 0-421-3-432-12-44-34-60-93-65-50-4-57-8-60-27-3-23-3-23 432-23h435l10 38c13 50 41 212 41 240 0 15-6 22-19 22-14 0-27-16-44-54-36-78-91-135-164-168-59-26-71-28-197-28-186 0-177-13-174 259l3 206h107c144 0 158-10 183-128 4-20 11-27 23-25 15 3 17 22 17 193 0 183-1 190-20 190-17 0-21-9-26-51-9-74-30-101-92-114-29-6-83-10-122-8l-70 3-3 211c-3 250-22 226 173 219 112-5 137-9 182-31 55-26 96-71 132-141 21-42 47-56 57-30 2 7-2 62-11 122-15 108-29 139-59 133-6-2-188-4-404-5zm2676-1c-19-2-28-9-28-21 0-14 11-20 52-24 37-5 59-14 78-32 25-26 25-26 25-438 0-396-1-413-21-447-18-32-25-35-74-40-48-4-55-8-58-27-3-23-3-23 226-23 219 0 230 1 235 19 7 27 0 31-52 31-51 0-60 4-84 40-15 22-17 66-17 438 0 399 1 415 20 442 17 23 31 30 75 35 45 6 55 11 55 26 0 16-8 19-52 21-102 3-353 3-380 0zm1810 1c-43-2-78-7-78-11 1-17 18-31 45-36 48-9 87-60 239-314l146-244v-171c0-171 0-172-25-200-21-21-35-27-69-27-45 0-70-17-57-38 6-9 63-12 237-10 221 3 229 4 229 23 0 16-8 21-35 23-64 5-80 12-100 45-18 28-20 51-20 197v166l103 162c56 90 120 192 142 228 58 95 118 153 166 160 28 5 39 11 39 24 0 16-13 18-112 21-175 6-240 1-236-19 2-11 17-19 42-23 50-8 69-33 63-81-6-41-216-399-232-394-14 4-245 397-245 417 0 27 25 50 60 58 20 4 36 14 38 22 5 27-84 33-340 22zm-6606-20c2-13 19-21 62-28 100-17 96 2 96-475 0-385-1-407-20-437-20-33-36-40-100-45-28-2-36-8-38-25-3-23-3-23 233-23s236 0 233 23c-3 19-11 23-56 27-59 6-87 30-97 85-3 17-5 206-3 422 3 391 3 391 27 417 17 18 39 28 72 32 35 5 49 11 52 25 5 18-5 19-230 19-218 0-234-1-231-17zm2768-1c0-16 10-21 55-27 106-13 107-17 103-537-3-344-4-358-24-385-17-23-30-29-75-33-47-4-54-8-57-28-3-22-3-22 230-20 225 3 233 4 233 23 0 17-8 21-52 25-38 4-56 12-72 30-19 23-20 38-21 223v197h49c60 0 70-10 172-160 39-58 107-158 151-222l80-118h128c99 0 130 3 140 15 17 20 4 35-32 35-67 0-108 38-238 227-67 98-136 192-153 210l-30 32 38 15c21 9 41 16 45 16 3 0 27 14 53 31 168 111 149 357-35 440-52 23-60 24-370 27-309 3-318 2-318-16zm568-51c108-55 144-212 76-328-20-35-39-51-87-74-54-25-74-29-149-29h-88v224c0 260-12 237 121 231 62-2 99-9 127-24z"/></g></svg><svg xmlns="http://www.w3.org/2000/svg" width="1620" height="428" version="1.0" viewBox="0 0 1620 428"><g fill="#212023" transform="matrix(.1 0 0 -.1 0 428)"><path d="M1200 3035v-775h610v380c0 209 2 380 5 380s34-24 68-52c72-61 294-244 614-506 122-101 225-187 228-192 4-6 126-10 316-10h309v1550h-600v-400c0-251-4-400-10-400-5 0-44 31-87 68-43 38-242 212-443 387s-371 325-378 332c-11 10-82 13-323 13h-309v-775zm786 722c131-86 263-115 374-82 114 33 103 39 96-51-8-88 6-157 50-250 30-63 103-164 133-182 21-12 21-12 21 303v315h-755l81-53zm4123-273c-13-14-37-33-52-42-22-13-26-22-22-42 5-24-78-254-261-723-52-133-88-179-154-197-42-11-48-18-28-38 14-14 305-17 327-3 23 15 5 38-36 44-23 4-49 17-62 31-30 32-25 70 26 202 27 71 41 96 57 100 11 2 97 3 190 2l169-3 42-105c60-145 64-172 31-204-15-16-36-26-54-26-15 0-37-7-48-15-38-29 3-35 216-32 204 2 205 2 208 25 3 19-1 22-29 22-24 0-41 9-68 38-30 32-62 105-195 448-203 522-209 537-222 541-5 2-21-8-35-23zm-12-226c6-24 41-119 77-212 52-131 64-171 54-177-15-10-278-12-302-3-9 3-16 10-16 15 0 15 142 393 153 407 16 20 23 14 34-30zm2179 205c-46-39-54-51-50-70 4-15-5-53-24-101-37-93-216-562-247-650-37-101-81-147-157-166-38-9-35-34 5-41 17-3 95-5 172-3 137 3 140 4 143 26 3 19-1 22-33 22-29 0-44 7-67 32-35 38-35 46 19 195 28 77 42 103 57 107 12 3 96 6 188 6 123 0 169-3 175-12 19-31 84-207 89-244 6-36 3-43-21-62-15-12-39-22-54-22-35 0-55-15-48-34 6-14 32-16 202-16 186 0 235 6 235 30 0 5-19 14-42 20-79 22-70 4-303 600-53 135-112 287-132 338-20 50-40 92-44 92s-32-21-63-47zm8-190c4-16 18-55 30-88 13-33 45-115 71-182s44-126 41-131c-5-8-314-5-324 3-1 1 12 40 29 86s48 133 70 192c56 157 70 176 83 120zm3277 195c-42-35-51-47-47-68 3-15-9-60-29-110-35-86-75-193-205-537-82-217-107-254-185-274-50-13-51-14-30-35 12-12 45-15 167-14 142 2 178 8 178 31 0 4-17 11-37 15-53 9-71 20-88 53-16 32-14 41 35 178 18 48 39 94 48 101 11 8 66 12 193 12h177l52-131c35-88 50-139 46-155-7-25-52-54-85-54-29 0-51-11-51-25 0-7 7-16 16-19 21-8 363-6 394 3 36 10 39 41 5 41-42 0-81 29-108 79-14 25-72 168-130 316-202 519-248 635-257 635-4 0-31-19-59-42zm4-190c4-13 16-42 26-65 11-23 22-54 25-70 3-15 27-82 55-147 27-66 47-122 44-124-7-7-296-12-317-6-20 6-19 12 56 205 31 80 56 148 56 151 0 16 32 78 39 78 6 0 13-10 16-22zm-7131 200c-10-15 24-38 58-38 45 0 92-50 111-119 25-89 25-612 0-704-26-98-50-123-135-141-31-7-37-30-12-40 25-9 347-7 363 3 19 12 6 41-19 41-47 0-87 27-111 76-23 48-24 55-27 369-2 176 0 330 5 343 8 21 38-14 303-344 162-202 314-392 338-423 50-66 69-82 88-74 12 4 14 76 14 440 0 307 4 447 12 475 16 54 58 98 95 98s57 14 50 34c-6 14-31 16-197 16-180 0-190-1-190-19 0-14 10-21 38-26 53-9 98-38 118-76 14-28 16-70 15-303 0-149-1-293-1-321l-1-50-22 29c-12 16-54 68-93 115-38 47-164 203-278 346-115 143-219 270-233 283-22 20-33 22-153 22-86 0-131-4-136-12zm2446 10c0-2-22-67-48-146-27-78-46-145-43-147 17-17 43 2 80 58 50 77 111 140 159 164 31 15 67 19 221 21 148 3 183 1 179-10-3-7-131-202-285-433-321-483-359-543-349-553 4-4 184-8 399-10 307-2 396 0 410 10 16 12 78 222 81 273 2 35-29 28-47-10-26-54-92-140-131-170-61-46-111-55-318-55-151 0-188 3-188 14 0 7 59 103 132 212 355 536 498 758 495 768-3 8-118 12-375 14-205 1-372 1-372 0zm2094-13c-9-22-4-25 56-34 31-5 60-17 73-30 22-21 22-25 22-434 0-227-3-424-8-439-9-33-38-50-97-58-56-6-68-34-19-44 40-8 392-8 413 0 9 3 16 14 16 24 0 14-11 18-51 22-34 4-58 12-72 27-21 21-22 30-22 224 0 188 1 202 18 205 37 7 90-10 114-36 14-15 88-120 164-234 77-114 146-214 155-222 12-13 40-16 132-16 64 0 123 4 131 9 21 14 5 41-24 41-39 0-99 35-132 77-17 21-76 106-132 188-57 83-114 161-127 176-33 35-30 43 19 56 161 43 242 211 173 359-27 58-71 96-148 127-49 20-74 22-351 25-267 3-298 2-303-13zm529-46c81-22 147-118 147-213 0-61-28-132-65-165-56-49-99-62-205-64l-95-2-3 215c-1 118 0 220 2 227 7 16 164 18 219 2zm622 50c-11-17 23-39 61-39 90 0 95-17 101-329 3-141 1-329-5-419-11-191-15-200-103-210-39-5-55-12-57-24-5-25 46-29 333-24 198 4 272 8 312 20 131 41 213 146 213 274 0 37-4 82-9 100-20 69-114 146-195 161l-41 7 34 18c52 28 122 97 142 141 21 46 24 116 8 166-21 60-58 100-128 133-66 31-66 31-362 34-228 3-299 1-304-9zm555-61c62-32 90-88 90-180 0-153-89-232-255-226l-80 3-3 150c-2 83 0 178 3 213l7 62h97c81 0 104-4 141-22zm-6-470c101-28 145-95 146-218 0-59-5-86-25-128-43-92-94-122-209-122-65 0-78 3-105 26-18 14-35 42-41 65-11 39-13 350-3 376 7 17 178 18 237 1zm1419 535c-25-10-12-31 22-37 53-10 90-54 204-246 58-96 124-207 148-247l43-72v-171c0-172 0-172-29-201-23-22-39-29-69-29-22 0-45-6-51-14-25-30 22-37 238-36 177 1 210 4 215 17 11 28 6 33-39 33-35 0-52 6-77 29-33 29-33 29-36 203l-3 173 83 130c46 72 113 177 148 235 77 125 122 172 181 191 26 8 44 20 44 29 0 13-26 15-170 15-142 0-170-2-170-15 0-8 17-18 44-25 49-12 66-39 57-90-6-32-216-387-232-392-10-3-237 375-249 414-8 29 34 73 70 73 20 0 26 4 23 18-3 15-21 17-193 19-105 1-196-1-202-4zm1137-12c0-15 9-22 38-26 59-10 76-14 92-25 13-8 15-71 18-448l3-440-31-26c-20-16-44-26-63-26-41 0-62-14-54-34 6-15 46-16 426-14 276 2 424 7 430 13 12 12 51 211 51 257s-26 33-60-31c-39-73-102-138-160-165-36-16-70-21-173-24-143-4-179 4-196 46-8 18-10 98-9 227l3 200 50 3c28 2 79 1 114-3 81-9 116-38 126-108 6-37 11-47 26-47 18 0 19 10 19 190s-1 190-19 190c-15 0-20-10-26-47-9-59-29-99-57-114-25-14-175-24-212-15-26 6-26 6-24 219l3 212 139 3c107 2 150-1 188-14 57-19 126-84 158-149 15-31 28-45 42-45 18 0 19 5 13 63-4 34-12 91-18 127l-12 65-413 3c-404 2-412 2-412-17zm995 9c-9-15 14-40 37-40 32 0 56-18 82-63 14-23 89-204 166-402 226-578 231-589 259-537 12 23 218 567 268 707 75 213 127 295 185 295 31 0 60 36 36 45-8 3-86 4-173 3-133-3-160-6-160-18 0-8 16-19 37-25 86-24 96-81 41-236-21-58-74-207-118-332-46-132-83-223-89-217-8 8-41 90-178 445-84 218-91 241-84 278 5 27 14 39 40 51 19 9 44 16 56 16 15 0 20 5 18 18-3 15-22 17-210 20-138 2-209-1-213-8zM1890 2267c0-378 4-604 11-642 16-88 59-165 126-224 81-72 144-95 263-96 124 0 184 26 277 121 35 36 62 68 59 71s-34-7-68-23c-58-27-72-29-178-29-107 0-118 2-161 27-66 39-134 118-155 181-26 75-23 209 6 270 25 53 83 110 136 132 51 21 159 19 209-4 67-30 115-105 115-176-1-30-34-97-61-122-25-23-78-47-87-39-2 3 6 21 18 42 27 43 32 109 10 148-42 79-170 72-226-12-15-21-19-46-19-109 0-74 3-85 30-125 47-66 104-93 195-92 163 2 266 92 291 256 11 65 10 86-4 144-28 114-107 212-205 257-40 18-66 21-177 22-124 0-134-2-184-27-29-16-54-28-56-28s8 26 23 58c25 52 27 68 27 177 0 114-2 123-32 187-47 100-148 238-174 238-5 0-9-252-9-583zm-690-414c0-655 26-757 246-980 92-94 109-107 205-152 185-87 357-120 633-121 483 0 800 149 974 460 79 142 92 245 92 748v372h-609l2-282c2-267 1-287-20-353-71-222-251-346-485-333-194 10-352 143-412 347-13 44-16 108-16 338v283h-610v-327zm11118 130c-57-200-69-256-56-264 21-14 25-11 57 46 73 130 145 168 307 163l99-3v-452c0-451 0-451-24-477-18-19-35-26-62-26-50 0-69-8-69-31 0-18 11-19 229-19 199 0 230 2 235 16 9 23 9 23-31 29-76 12-84 16-103 48-19 30-20 52-20 464 0 508-16 459 145 451 88-5 107-9 145-33 56-35 86-69 116-127 24-46 49-62 60-35 2 7-8 69-24 137-20 93-31 125-42 123-8-1-39-6-69-12-33-7-188-11-395-11-310 0-432 7-477 25-11 4-18 0-21-12zm-1255-11c-65-23-116-62-151-114-25-39-27-47-25-144 2-120 11-142 81-205 49-44 83-63 242-137 155-72 210-132 214-231 4-128-88-200-240-188-133 10-222 82-263 212-14 46-23 61-40 63-21 3-21 1-21-152 0-150 1-156 20-156 13 0 24 10 30 25 12 32 33 32 101 1 109-50 273-56 369-14 140 60 207 230 149 382-32 86-96 137-291 233-177 87-219 121-237 190-12 43-2 100 23 138 22 33 86 65 145 72 122 14 250-71 282-187 12-42 20-55 35-55 18 0 19 9 22 129 3 147-5 168-44 123l-24-28-68 28c-88 36-229 43-309 15zm-6631-19c2-12 20-20 58-27 46-10 57-16 75-46 19-33 20-51 21-375 0-377 2-391 63-472 53-69 138-110 258-125 112-13 232 0 300 34 91 46 159 150 182 280 6 37 11 178 11 332 0 290 4 314 55 354 15 12 37 22 49 22 22 0 46 17 46 32 0 4-84 8-186 8-170 0-185-1-182-17 2-12 17-20 48-25 65-11 90-41 100-119 10-88 2-563-12-624-21-98-74-166-156-201-48-21-203-24-256-5-55 19-120 82-147 144-23 50-24 62-27 366-2 173-1 333 3 355 7 49 41 78 100 86 27 3 41 10 43 23 3 16-13 17-223 17-208 0-226-1-223-17zm1228-3c0-16 7-20 33-20 38 0 89-29 112-64 29-44 35-143 27-472-9-340-11-352-62-399-12-11-41-24-64-30-25-6-41-16-41-25 0-13 29-15 189-18 186-2 205 0 206 30 0 4-21 10-47 14-58 9-96 44-114 105-13 46-21 680-8 700 3 6 80-84 170-198 91-114 176-222 189-239 302-376 343-424 361-424s19 11 19 424c0 244 4 446 10 477 13 66 48 105 104 117 26 5 42 14 44 25 3 16-13 17-193 17-177 0-196-2-193-16 2-11 21-21 51-29 55-14 84-37 105-85 13-29 17-90 20-334 3-193 0-302-6-308-7-7-21 4-44 34-18 25-85 110-150 189-64 79-176 219-250 310-215 267-175 239-333 239-128 0-135-1-135-20zm1255 10c-12-19 7-30 51-30 37 0 51-6 75-29l29-29v-420c0-420 0-420-26-451-21-25-33-31-67-31-50 0-72-12-64-34 6-14 34-16 232-16s226 2 232 16c8 22-14 34-64 34-36 0-46 5-67 33-26 34-26 34-26 441 0 441 1 450 55 474 14 7 41 12 60 12 28 0 35 4 35 20 0 19-7 20-224 20-139 0-227-4-231-10zm577-7c2-10 17-20 36-24 73-15 73-14 293-577 86-222 165-415 174-429 14-22 19-23 31-11s179 443 301 778c65 178 110 240 174 240 22 0 29 5 29 20 0 19-7 20-171 20-156 0-170-1-167-17 2-12 16-20 42-24 83-14 92-69 36-231-84-246-203-569-207-564-3 3-18 40-33 83-16 43-72 191-125 328-54 138-100 268-102 290-7 53 19 85 73 94 26 4 40 12 42 24 3 16-13 17-213 17-199 0-216-1-213-17zm1158-3c0-17 7-20 44-20 33 0 52-7 75-26l31-26v-421c0-397-1-424-19-453-17-28-25-32-75-36-62-5-71-10-63-33 6-13 58-15 436-15h430l15 73c38 176 40 243 8 223-6-4-23-32-39-63-38-77-101-137-168-162-46-17-79-21-190-21-184 0-175-14-175 261v209h104c91 0 107-3 137-23 27-18 37-34 49-80 10-42 18-57 30-55 13 3 15 31 18 189 2 168 1 187-14 193-21 8-34-10-34-47 0-15-7-43-15-63-20-49-62-64-180-64h-95l2 218 3 217 150-1c167-1 197-9 263-69 21-18 51-59 66-89 29-58 33-61 53-48 9 6 8 35-5 127l-17 120-412 3c-408 2-413 2-413-18zm1032 3c2-13 17-20 55-24 62-8 68-12 91-52 15-29 17-74 20-420 3-382 3-389-18-430-27-51-35-57-82-57-49 0-68-9-68-31 0-18 11-19 230-19 230 0 230 0 230 25 0 23-4 25-41 25-96 0-109 32-109 263 0 128 3 177 13 185 7 6 31 7 61 2 60-9 51 2 243-282l147-218h128c109 0 130 2 135 16 7 19-13 34-47 34-42 0-95 45-156 132-155 223-215 306-229 318-24 20-18 27 40 46 65 20 137 79 166 136 14 28 20 59 20 109 1 124-57 201-180 239-57 18-93 20-358 20-275 0-294-1-291-17zm535-39c91-30 142-104 143-205 0-112-42-179-139-221-35-15-64-18-135-16l-91 3-3 201c-1 117 2 213 8 228 9 25 12 26 89 26 47 0 100-7 128-16zm1465 39c2-14 17-20 58-25 61-7 85-28 95-81 3-18 5-208 3-424-3-380-4-392-24-420-15-20-31-29-55-31-62-5-79-12-79-32 0-19 7-20 225-20 194 0 226 2 232 15 8 22 4 24-57 32-41 6-57 14-74 36-21 28-21 37-21 448 0 419 0 419 27 446 20 19 41 29 75 33 35 4 49 10 51 23 3 16-13 17-228 17s-231-1-228-17zm1765-3c4-14 14-20 35-20 46 0 82-45 223-282 70-117 136-226 148-243 20-28 21-40 18-204-2-159-5-177-24-203-15-20-29-28-51-28-51 0-76-11-76-31 0-18 11-19 223-19 216 0 247 4 247 31 0 4-21 11-47 14-71 10-77 13-95 43-14 23-17 60-19 198l-1 170 122 195c203 322 220 343 293 358 19 4 33 14 35 24 3 15-12 17-168 17-157 0-171-1-168-17 2-12 16-20 42-24 21-3 42-12 47-20 18-29 9-83-25-143-68-121-193-321-201-321-12 0-245 408-245 431 0 28 30 54 62 54 21 0 38 16 38 36 0 2-94 4-209 4-204 0-209 0-204-20z"/></g></svg><svg xmlns="http://www.w3.org/2000/svg" width="1620" height="428" version="1.0" viewBox="0 0 1620 428"><g fill="#020203" transform="matrix(.1 0 0 -.1 0 428)"><path d="M1208 3608c-4-285 1-1330 7-1336 2-3 135-5 295-6 251-1 290 1 290 14 1 8 2 176 3 372s5 359 9 363c6 6 135-93 238-182 14-12 55-45 91-75 142-115 275-223 287-235 7-7 72-61 145-120s138-113 145-120 28-13 45-13c18 0 156-1 307-2l275-3 3 773 2 772h-600v-400c0-278-3-400-11-400-6 0-92 71-191 158-100 86-306 266-459 400l-278 242h-600l-3-202zm712 199c0-9 112-79 165-103 85-39 235-46 314-15 29 12 56 19 59 16s5-50 3-104c-2-88 0-106 26-173 33-84 85-167 137-217l36-35v634h-370c-203 0-370-2-370-3zm4161-347c-30-28-50-50-44-50 17 0 10-30-39-155-25-66-65-169-88-230-195-514-201-525-285-547-29-8-41-16-38-25 4-10 42-13 167-13 107 0 156 4 146 10-12 8-10 10 10 11 17 0 8 5-25 14-68 19-89 46-82 106 6 46 61 202 80 227 7 9 58 12 192 12s185-3 192-12c19-25 84-200 89-242 6-38 3-45-21-64-15-12-38-22-51-22-18 0-54-22-54-34 0-4 21-5 224-5 139-1 192 2 197 11 12 18 1 28-31 28-18 0-39 10-57 29-36 36-66 107-302 721-79 204-111 280-120 280-3-1-30-23-60-50zm63-318c15-45 40-111 56-147s32-81 36-100l6-35h-165c-91 0-168 3-171 8-4 7 46 152 118 340 15 40 35 79 43 88 14 14 18 11 33-28 10-24 30-80 44-126zm2131 320c-28-26-39-46-38-63 1-13-16-67-37-119s-79-203-128-335c-156-414-169-439-254-467-73-25-47-33 115-36 126-2 161 0 172 12 12 12 11 15-8 20-12 3-32 6-44 6-28 0-63 49-63 87 1 15 20 78 43 138l42 110 191 3 192 2 42-107c23-60 45-128 47-153 4-41 2-46-24-62-15-9-45-19-65-23-22-4-38-13-38-21 0-12 38-14 215-14 213 0 216 0 205 20-6 11-20 20-32 20-40 0-90 70-135 186-42 110-239 614-295 757-21 53-35 77-47 77-9 0-34-17-56-38zm13-189c5-21 42-119 80-218 39-99 68-183 65-187-2-5-78-8-169-8-137 0-164 2-164 15 0 7 16 58 36 112s51 139 69 188c52 147 65 162 83 98zm3271 187c-32-29-43-46-41-64 2-13-9-52-23-87-15-35-41-104-60-154-18-49-49-133-70-185-20-52-55-142-77-200s-49-130-61-159c-21-56-85-131-111-131-8 0-27-5-43-11-22-8-24-12-13-19 20-13 333-13 326-1-4 5 0 11 6 14 7 2-6 7-29 11-48 9-93 53-92 89 0 12 19 74 43 137l43 115 196 3c133 2 197-1 197-8 0-6 20-62 45-124 25-63 45-123 45-134 0-33-32-62-85-77-27-7-43-14-35-15 11-1 9-4-5-10-12-5 68-9 200-9 145-1 215 3 205 9-12 8-12 10 5 10s17 2 5 10c-8 5-25 10-36 10-33 0-71 36-97 93-14 28-95 232-181 452-186 476-186 475-201 475-7 0-32-18-56-40zm62-300c16-41 29-83 29-92s16-54 35-99c19-46 35-89 35-96 0-10-37-13-164-13-91 0-167 4-170 9-8 13 133 400 157 429 12 15 29-15 78-138zm-4728 319c-14-5-30-41-58-130-51-165-49-157-36-139 9 13 11 13 11-2 0-10 5-18 11-18 5 0 7 5 4 10-3 6-2 10 3 10 4 0 30 32 56 70 82 120 143 158 270 167 95 7 276-5 276-18 0-5-142-222-315-482s-315-481-315-490c0-16 32-17 404-17h404l11 33c17 53 61 228 61 243 0 30-31 12-50-29-28-59-113-153-164-180-38-20-57-22-258-25-140-2-218 0-218 7 0 5 62 103 138 218 440 661 505 763 498 771-9 8-711 9-733 1zm2120 4c-32-3-43-9-43-21 0-15 2-15 10-2 6 10 10 11 10 3 0-7 11-13 25-13 39 0 92-26 107-52 10-18 14-113 16-422 3-349 1-403-13-432-20-43-48-61-107-69-31-5-48-12-48-21 0-22 451-16 457 6 4 12 3 12-5 2-7-11-10-11-15 2-4 9-18 16-32 16-36 0-82 26-90 49-5 18-10 263-6 369 1 42 1 42 53 42 48 0 54-3 94-45 23-25 61-76 84-113 22-37 83-128 134-202l94-135 125-5c90-4 128-2 136 7 17 18 14 22-26 29-83 15-112 42-238 229-48 72-110 159-137 193-27 35-48 65-46 67 2 1 29 10 62 19 82 24 157 99 176 175 34 145-31 256-180 307-39 14-506 27-597 17zm523-64c54-25 79-54 98-112 31-94 11-209-47-259-52-46-99-61-203-66-122-5-114-20-114 198 0 193 7 257 29 264 37 11 197-6 237-25zm3261 64c-27-7-15-27 21-34 52-11 65-27 60-79-4-35-27-82-106-213-142-235-126-217-155-171-93 149-217 364-222 387-9 33 17 77 44 77s51 10 51 21c0 13-400 7-401-6 0-5 14-13 32-16 33-7 119-84 119-106 0-7 5-13 10-13 6 0 10-5 10-12 0-12 178-316 231-396 28-41 29-46 29-171 0-70-3-149-6-175-9-60-41-96-88-96-44 0-66-9-66-26 0-12 40-14 228-14 150 0 222 4 212 10-8 5-10 10-5 10 24 1-23 20-48 20-30 0-41 8-70 50-14 21-17 51-17 196 0 172 0 172 35 223 19 28 35 55 35 61 0 5 3 10 8 10 4 0 12 9 17 20 6 10 54 89 107 173 106 167 154 220 211 231 21 4 37 13 37 20 0 19-254 34-313 19zm2159-2c-31-5-36-8-25-17 8-6 25-14 39-18 44-11 62-33 67-78 6-52-3-82-95-338-39-107-85-237-103-288-17-51-36-91-41-90-8 3-174 422-249 625-37 102-20 153 56 172 91 23 48 31-165 31-180 0-210-2-210-15 0-9 9-15 24-15 37 0 82-44 114-113 16-34 60-141 97-237s72-177 76-178c5-2 7-7 4-12-3-4 17-61 44-126 26-66 69-174 96-241 26-68 51-123 56-123 21 0 50 72 255 625 129 349 145 377 219 396 25 6 45 17 45 24 0 22-200 32-304 16zm-10502-8c13-4 15-7 7-13-8-4 3-10 27-13 43-7 112-62 112-89 0-9 7-29 15-44 8-16 15-37 15-46 0-10 5-18 11-18 5 0 8-4 5-8-2-4-1-14 5-22 6-11 9-2 9 28 0 57 17 54 65-10 22-29 42-55 45-58 8-8 52-62 80-100 24-32 144-182 213-264 17-22 59-74 92-116 52-67 175-221 205-257 6-7 19-13 30-13 18 0 19 15 19 445 1 379 3 451 16 483 22 51 51 79 90 86 18 4 38 13 45 21 11 13-12 15-185 15-153 0-196-3-193-12 3-7 20-15 39-19 48-7 93-36 115-73 18-29 19-55 19-348 0-174-4-320-9-325-4-4-13 0-20 11-13 21-97 127-386 484-113 140-210 260-216 268-9 11-41 14-150 13-76-1-130-4-120-6zm5678-5c3-7 23-16 46-20 67-11 97-34 110-84 14-53 17-760 3-768-5-3-12-21-15-40-8-44-43-72-101-80-30-5-45-12-45-22 0-13 39-15 308-12 306 3 307 3 362 29 115 54 167 125 177 236 7 88-9 144-55 195-38 43-120 88-159 88-33 0-28 14 12 33 48 23 110 81 129 121 10 22 16 61 16 108 0 100-32 153-117 194-58 29-58 29-366 32-247 2-308 0-305-10zm547-43c17-8 43-32 58-52 26-34 28-43 28-134 0-92-2-100-30-141-47-66-92-86-202-90-50-1-95 1-100 6-4 4-8 97-8 205 0 160 3 201 15 216 13 16 26 17 112 12 57-4 110-13 127-22zm16-481c141-54 178-250 74-393-40-55-82-72-180-72-86 0-110 10-139 56-16 26-18 55-20 205-1 96-2 185-1 197 1 20 7 22 59 25 90 5 164-2 207-18zm2535 522c0-9 19-16 58-21 64-8 92-27 92-62 0-12 5-23 10-23 6 0 10-136 10-389 0-249-4-392-10-396-5-3-10-15-10-26 0-35-41-65-98-73-36-5-52-11-52-21 0-13 59-15 429-15 401 0 430 1 435 18 9 29 34 164 41 220 10 73-15 71-52-5-33-68-101-141-158-168-32-16-68-20-187-23-202-6-193-16-201 223-4 99-3 196 1 215 8 35 8 35 87 38 102 4 137-3 174-34 24-20 32-37 37-76 6-43 9-49 19-35 7 9 15 14 19 10 3-4 5 74 4 173-3 151-5 179-18 179-10 0-18-16-24-52-5-32-19-64-36-85-28-33-28-33-139-36-135-5-128-15-131 183-3 168-3 160 6 213 9 54 19 57 186 48 179-9 233-37 305-161 30-51 60-67 56-30-1 11-7 66-14 123l-12 102h-414c-345 0-413-2-413-14zm-8578-366c0-14 2-19 5-12 2 6 2 18 0 25-3 6-5 1-5-13zm0-257c-1-45-6-83-11-85-5-1-11-29-14-61s-10-63-15-70-13-27-17-45c-10-47-50-90-96-102-25-7-37-15-33-22 5-8 2-9-9-5-10 3-17 2-17-3 0-6 73-10 186-10 139 0 183 3 178 12-5 8-1 9 12 5 18-7 18-7 0 8-11 8-29 15-41 15-31 0-63 27-87 73-19 36-23 65-28 207-4 96-7 131-8 83zm-2753-80v-608c-1-508 0-532 20-588 76-216 315-323 518-233 57 26 184 138 171 151-3 3-26-4-53-15-97-42-225-46-315-12-54 21-126 89-160 153-34 62-35 68-35 169 1 115 14 153 73 217 83 89 234 105 336 35 109-75 97-245-21-306-30-15-63-21-63-11 0 2 11 21 25 41 53 78 20 185-61 200-48 9-80-2-119-39-85-79-65-244 39-315 118-81 317-25 392 110 27 50 29 60 29 168 0 107-2 119-28 169-32 61-103 134-156 160-113 58-325 53-404-9-43-34-47-22-15 46 59 125 49 282-24 414-38 67-127 180-142 180-3 0-6-35-7-77zm-695-990c8-497 14-550 77-677 65-131 177-256 298-334 173-113 462-172 773-159 235 9 390 44 557 124 158 75 319 249 384 413 46 115 50 175 51 622l1 418h-595v-262c0-301-9-359-66-468-39-75-118-156-183-190-77-39-148-52-255-48-115 5-165 22-253 88-57 44-125 136-157 214-19 47-21 77-26 356l-5 305-304 3-304 2 7-407zm9876 200c-72-19-143-73-169-126-17-34-21-63-21-136 0-81 3-98 26-136 45-78 99-113 347-224 136-62 198-186 148-296-38-85-131-126-247-109-33 4-63 8-69 9-13 0-34 18-99 80-49 47-74 94-90 168-5 20-12 27-24 25-15-3-17-20-19-143-3-149 3-180 31-152 9 8 16 20 16 25 0 23 35 19 108-10 66-27 91-32 181-34 88-2 113 1 170 21 114 41 170 126 172 261 3 162-50 224-289 340-85 41-169 86-188 101-51 39-78 96-71 153 8 66 24 95 70 127 36 25 48 28 127 28 72 0 94-4 134-25 56-28 111-95 128-154 31-109 50-79 50 80 0 102-3 128-13 126-7-2-19-12-27-24-16-22-22-22-127 16-81 29-169 33-255 9zm1237 0c-30-105-57-212-57-231 0-36 31-23 55 23 31 61 113 139 161 153 23 7 89 12 148 12h106v-447c0-446 0-447-22-479-18-27-31-34-70-39-27-4-51-12-55-17-3-7-1-8 5-4 7 4 12 3 12-3 0-5-6-12-12-14-7-3 82-6 199-6 116-1 218 2 227 5 27 10 19 34-13 34-43 0-84 18-105 47-19 26-20 47-20 465-1 379 1 440 14 449 8 5 64 8 126 7 103-3 114-5 159-33 48-30 92-80 127-144 19-35 49-34 42 2-2 12-15 69-27 127l-22 105-45-5c-75-8-842-6-886 3-35 7-42 6-47-10zm-7882-13c-3-6 1-7 10-4 10 4 15 2 13-7-2-8 11-15 37-19 24-3 51-16 65-30 25-25 25-25 30-395 5-360 6-371 28-416 46-92 135-154 244-169 151-22 302-4 377 45 46 31 93 94 122 166 21 51 22 72 25 344 2 160 6 308 9 330 7 50 38 103 67 114 13 5 38 15 55 21 18 7 30 16 27 21s-86 9-185 9c-140 0-180-3-177-12 3-7 25-18 51-25 59-14 64-18 85-56 15-28 17-66 17-332 0-337-8-398-59-473-20-28-52-57-86-76-48-27-66-31-150-34-89-4-101-2-151 23-88 44-115 77-145 174-11 35-14 120-14 371 0 179 3 334 6 345 8 30 46 54 90 57 36 3 53 13 54 31 0 11-438 9-445-3zm1225-4c0-9 15-17 38-21 56-9 96-37 118-81 17-36 19-67 22-359 3-265 0-332-13-392-20-89-53-129-113-139-38-6-40-8-25-23 14-13 45-17 180-19 152-3 163-2 163 15 0 15 2 16 10 3s10-12 10 3c0 12-8 17-26 17-49 0-91 29-116 78-22 46-23 56-26 386-2 227 0 342 7 349s22-3 50-34c22-24 40-50 41-56 0-7 9-18 20-25s20-18 20-25c0-6 4-13 8-15 4-1 38-42 76-90 37-49 72-88 77-88 6 0 7-4 4-10-3-5-3-10 2-10 4 0 19-17 33-38 23-35 98-131 111-142 3-3 61-75 129-160 129-161 139-172 155-167 7 3 9 149 6 423-3 364-1 426 13 474 20 70 64 120 104 120 29 0 58 21 45 33-10 11-375 8-369-2 4-5 0-11-6-14-7-2 12-10 42-17 68-16 105-53 119-122 16-74 15-618-1-618-7 1-34 29-60 63s-80 103-120 152c-40 50-138 171-218 270-79 99-166 206-193 238l-49 57h-134c-109 0-134-3-134-14zm1260 0c0-17 21-26 63-26 54-1 80-29 88-96 4-33 5-225 2-429-5-354-6-371-26-402-21-31-50-43-104-43-19 0-24-4-19-16 3-9 6-18 6-20s98-4 218-4c206 0 218 1 219 19 1 16-8 20-52 26-47 5-57 11-75 39-19 32-20 48-20 450 0 418 0 418 28 445 19 19 43 30 75 35 31 5 47 12 47 22 0 12-36 14-225 14-186 0-225-2-225-14zm572 2c2-6 17-16 34-21 16-5 42-21 58-36 28-25 88-139 101-194 4-15 11-27 16-27s8-3 7-7c-4-11 24-93 31-93 4 0 8-10 8-22 1-13 7-24 13-26 5-2 8-7 5-12-5-7 63-190 74-200 3-3 7-12 9-20 4-18 117-312 138-357 18-40 37-42 53-5 22 47 212 551 278 737 60 169 116 255 164 255 19 0 49 21 49 34 0 3-76 6-170 6-103 0-170-4-170-10 0-12 34-30 58-30 29 0 51-31 58-81 5-38-5-75-76-274-129-366-163-454-172-449-4 3-8 12-8 20 0 7-56 160-125 339-132 344-143 387-105 425 11 11 26 20 33 20 18 0 67 24 67 33 0 4-97 7-216 7-162 0-215-3-212-12zm1158-1c0-8 23-18 59-25 66-14 91-35 91-80 0-17 4-33 9-36 12-8 7-686-5-753-14-71-34-90-101-99-32-4-50-10-43-14s9-13 6-19c-8-13 811-16 831-3 12 8 24 53 42 157 21 122 21 123 6 129-10 3-24-14-45-53-49-91-87-131-159-165-63-29-72-30-204-31-112 0-139 3-147 15-5 8-10 11-11 5 0-5-7 6-14 25-10 25-14 92-14 228-1 192-1 192 26 203 41 15 191 1 230-23 27-16 34-29 45-78 10-49 14-56 27-48 23 14 20 361-3 366-9 2-16-8-20-27-3-17-8-44-12-60-3-16-16-39-30-52-24-22-33-24-142-24h-117l-3 185c-2 102 0 200 3 218l6 34 157-4c137-3 162-6 197-25 50-26 95-73 132-137 15-27 33-47 38-45 13 5 9 125-5 196l-11 53h-410c-329 0-409-3-409-13zm1037 7c-15-16-5-23 41-29 72-10 77-13 100-54 22-38 22-46 22-445 0-223-3-406-8-406-4 0-15-12-24-27-13-23-28-30-74-38-68-12-80-30-27-39 49-8 386-8 407 0 25 10 19 34-8 34-53 0-82 13-104 44-22 32-22 40-20 227l3 194h52c37-1 58-6 74-20 11-11 91-122 177-248 106-156 162-229 178-233 29-7 217 1 232 10 23 14 12 26-22 26-67 0-118 55-283 299-31 46-76 105-100 131-48 53-46 58 22 80 58 19 117 62 150 111 25 35 30 54 33 116 7 124-45 202-168 250-38 15-89 18-345 21-165 2-304 0-308-4zm534-45c91-31 139-105 139-214 0-107-34-166-122-211-38-19-63-24-143-25-53-1-98 1-101 3-7 8-8 433 0 446 9 16 181 16 227 1zm1469 37c0-15 30-26 72-26 17 0 35-11 52-31 26-31 26-31 26-441 0-495 2-484-103-497-28-3-52-11-54-17-5-16 46-21 244-23 125-1 178 2 192 11 29 18 26 23-11 26-56 4-93 21-111 51-15 26-17 70-17 438 0 363 2 411 16 433 26 39 45 50 85 50 35 0 66 20 52 33-3 4-105 7-225 7-179 0-218-2-218-14zm1760 1c0-8 18-19 39-26 47-14 85-55 142-153 23-40 62-103 86-140 23-37 43-70 43-73 0-4 14-26 30-50 17-24 30-46 30-50s14-27 31-52c31-45 31-45 27-217-3-125-8-177-19-194-15-23-64-42-111-42-16 0-28-4-28-10 0-5 3-9 8-9 19 3 26-2 12-10-9-6 68-10 207-11 194 0 221 1 227 16 3 8 6 17 6 18 0 2-23 6-51 9-94 11-109 48-109 259 0 144 0 144 36 204 20 32 46 75 57 94 12 19 24 37 27 40s26 39 50 80c112 190 177 269 245 295 25 9 43 21 39 26-7 12-334 12-334-1 0-5 7-6 17-3 11 4 14 3 9-5-4-7 4-14 21-18 44-11 53-23 53-72 0-39-14-68-112-233-62-104-117-187-123-186-9 3-162 258-226 375-24 46-26 57-17 78 7 15 28 32 50 41 21 8 38 19 38 24s-90 9-200 9c-161 0-200-3-200-13z"/></g></svg></g></svg>